<?xml version="1.0" standalone="no"?>
<!DOCTYPE svg PUBLIC "-//W3C//DTD SVG 20010904//EN"
 "http://www.w3.org/TR/2001/REC-SVG-20010904/DTD/svg10.dtd">
<svg version="1.0" xmlns="http://www.w3.org/2000/svg"
 width="455.000000pt" height="455.000000pt" viewBox="0 0 455.000000 455.000000"
 preserveAspectRatio="xMidYMid meet">
<metadata>
Created by potrace 1.11, written by Peter Selinger 2001-2013
</metadata>
<g transform="translate(0.000000,455.000000) scale(0.100000,-0.100000)"
fill="#000000" stroke="none">
<path d="M313 3396 c-102 -33 -185 -105 -232 -205 l-26 -56 -3 -724 c-3 -801
-4 -782 61 -877 40 -59 115 -118 177 -140 25 -9 84 -18 133 -21 l87 -6 0 -93
0 -94 280 0 280 0 0 95 0 95 1205 0 1205 0 0 -95 0 -95 280 0 280 0 0 94 0 93
88 6 c48 3 107 12 132 21 62 22 137 81 177 140 65 95 64 76 61 877 l-3 724
-32 66 c-39 79 -102 140 -181 177 l-57 27 -1935 2 c-1580 1 -1943 -1 -1977
-11z m3266 -647 c74 -17 153 -61 214 -119 69 -68 76 -102 26 -144 -43 -36 -78
-33 -131 11 -66 55 -122 77 -198 77 -84 0 -129 -16 -194 -69 -29 -23 -62 -46
-74 -49 -44 -14 -101 38 -102 92 0 64 125 163 249 198 57 15 151 17 210 3z"/>
</g>
</svg>
