<?xml version="1.0" standalone="no"?>
<!DOCTYPE svg PUBLIC "-//W3C//DTD SVG 20010904//EN"
 "http://www.w3.org/TR/2001/REC-SVG-20010904/DTD/svg10.dtd">
<svg version="1.0" xmlns="http://www.w3.org/2000/svg"
 width="657.000000pt" height="657.000000pt" viewBox="0 0 657.000000 657.000000"
 preserveAspectRatio="xMidYMid meet">
<metadata>
Created by potrace 1.11, written by Peter Selinger 2001-2013
</metadata>
<g transform="translate(0.000000,657.000000) scale(0.100000,-0.100000)"
fill="#000000" stroke="none">
<path d="M2920 6560 c8 -5 22 -10 31 -10 9 0 24 -9 34 -20 9 -10 32 -24 50
-30 18 -6 36 -18 39 -26 3 -8 17 -19 31 -24 19 -7 25 -16 23 -32 -2 -13 2 -25
7 -28 6 -3 12 6 13 20 2 14 8 30 14 37 14 18 3 30 -53 58 -27 14 -55 34 -61
45 -11 17 -24 20 -78 20 -46 0 -61 -3 -50 -10z"/>
<path d="M3117 6549 c5 -17 12 -20 42 -17 31 3 36 0 39 -20 3 -17 16 -29 47
-42 27 -12 53 -33 67 -54 14 -22 32 -36 48 -38 19 -2 24 -8 23 -25 -2 -20 0
-21 23 -13 18 7 32 6 47 -2 12 -7 33 -13 46 -13 13 0 26 -6 28 -12 3 -7 -2
-13 -11 -13 -36 0 1 -57 48 -74 13 -4 17 -12 12 -29 -3 -12 -6 -28 -6 -34 0
-7 -7 -13 -16 -13 -27 0 -84 31 -84 46 0 8 -5 14 -11 14 -7 0 -9 -9 -5 -24 5
-20 3 -23 -14 -19 -27 7 -33 19 -17 35 21 20 9 39 -19 32 -26 -7 -31 5 -12 24
9 9 7 12 -9 12 -11 0 -26 -7 -34 -16 -8 -9 -23 -14 -40 -12 -25 4 -26 3 -18
-26 5 -16 6 -32 4 -35 -3 -2 -5 0 -5 6 0 16 -51 23 -72 10 -14 -9 -21 -8 -34
5 -22 21 -8 41 24 35 29 -6 52 1 52 14 0 5 -8 9 -17 9 -31 0 -81 38 -105 79
-13 23 -29 41 -37 41 -8 0 -29 18 -48 40 -26 30 -42 40 -65 40 -29 0 -30 -2
-24 -32 3 -18 9 -62 12 -98 5 -49 12 -70 28 -83 17 -15 18 -18 3 -13 -13 4
-22 -4 -34 -30 -20 -40 -10 -54 32 -46 25 4 40 40 30 73 -4 12 -1 21 10 25 22
9 26 2 29 -46 4 -51 25 -78 28 -34 0 16 0 38 -1 49 -1 10 1 26 4 34 4 11 9 10
22 -8 11 -17 12 -26 4 -34 -15 -15 -14 -37 2 -37 7 0 30 -9 51 -20 31 -15 36
-21 22 -26 -9 -4 -24 0 -34 9 -12 11 -22 13 -32 6 -12 -7 -11 -10 8 -15 27 -8
29 -24 3 -24 -24 0 -37 -18 -23 -32 7 -7 21 -5 43 6 18 9 38 16 45 16 7 0 14
5 16 12 5 15 28 1 28 -18 0 -8 -4 -13 -9 -10 -5 4 -12 -12 -16 -34 -4 -22 -10
-42 -15 -45 -4 -2 -8 -29 -9 -59 -1 -64 11 -76 78 -76 23 0 41 -4 41 -9 0 -11
-89 -36 -113 -32 -14 2 -18 -3 -15 -16 2 -10 13 -19 26 -21 12 -2 22 -8 22
-13 0 -6 14 -15 30 -20 36 -13 38 -32 8 -53 -29 -21 -35 -20 -43 5 -4 12 -12
18 -21 15 -8 -3 -26 -1 -40 4 -20 8 -30 6 -47 -7 -24 -19 -35 -53 -17 -53 5 0
10 4 10 8 0 12 61 2 83 -13 10 -7 28 -10 39 -7 17 4 20 2 15 -12 -8 -19 13
-46 35 -46 7 1 24 10 38 21 l24 21 -24 18 -23 18 21 13 c12 8 22 22 22 32 0
10 7 20 15 23 8 4 15 13 15 21 0 12 7 14 32 9 18 -3 36 -10 40 -14 11 -11 21
-77 19 -119 0 -18 4 -35 9 -38 13 -8 13 -42 1 -50 -5 -3 -33 4 -61 15 -40 16
-55 18 -66 9 -18 -15 -18 -38 0 -45 15 -6 11 -34 -6 -34 -5 0 -20 11 -33 25
-18 20 -29 24 -49 19 -46 -11 -82 -104 -40 -104 8 0 14 -10 14 -21 0 -12 4
-38 10 -58 5 -20 12 -53 15 -73 6 -37 35 -56 35 -23 0 8 6 15 14 15 8 0 21 3
30 6 21 8 66 -39 66 -71 0 -28 18 -33 50 -13 16 11 23 8 45 -17 14 -17 30 -44
35 -61 13 -40 44 -50 71 -23 16 16 23 17 40 9 15 -9 24 -8 35 1 20 16 31 2 16
-21 -26 -42 -6 -54 29 -19 16 16 26 18 47 11 16 -5 28 -17 30 -30 2 -12 10
-22 17 -22 23 0 28 -20 10 -40 -9 -10 -14 -23 -11 -29 4 -6 2 -19 -3 -30 -8
-15 -5 -27 14 -55 14 -20 25 -41 25 -45 0 -5 7 -11 15 -15 19 -7 19 -20 2 -38
-8 -7 -16 -19 -18 -27 -5 -15 -72 -41 -108 -41 -20 0 -22 -4 -17 -25 4 -14 2
-25 -3 -25 -5 0 -11 10 -14 22 -5 18 -8 19 -21 9 -9 -8 -14 -17 -11 -21 6 -11
-20 -20 -55 -20 -16 0 -41 -5 -55 -12 -27 -12 -34 -38 -10 -38 8 0 24 -9 34
-19 10 -10 28 -22 40 -26 12 -3 21 -11 21 -16 0 -5 11 -9 24 -9 16 0 26 -7 29
-21 3 -12 10 -18 17 -14 6 4 8 15 5 25 -7 22 11 36 19 14 4 -11 15 -13 38 -9
26 4 39 0 61 -19 15 -14 27 -29 27 -35 0 -5 12 -19 28 -30 15 -12 20 -20 12
-19 -20 4 -18 -62 2 -77 26 -19 29 -43 5 -47 -19 -3 -22 -9 -20 -42 3 -43 -19
-78 -43 -69 -8 3 -14 15 -14 28 0 26 -24 50 -40 40 -18 -11 -11 -53 10 -60 11
-3 20 -11 20 -17 0 -6 -7 -7 -17 -3 -52 21 -72 13 -37 -16 14 -12 14 -14 -2
-26 -13 -9 -36 -11 -80 -7 -54 6 -64 4 -83 -15 -26 -26 -37 -26 -50 -3 -16 30
7 42 79 42 114 0 117 33 3 46 -35 3 -68 13 -74 20 -6 8 -20 14 -31 14 -17 0
-19 2 -7 16 10 12 23 14 60 9 41 -6 49 -4 58 13 9 17 8 22 -9 27 -14 5 -20 15
-20 38 0 18 -5 39 -10 47 -7 11 -4 19 11 30 18 14 18 19 7 40 -33 62 -66 90
-108 90 -11 0 -23 7 -26 15 -11 29 -24 15 -24 -26 0 -41 0 -41 -32 -34 -48 11
-49 12 -27 50 l21 35 -34 -12 c-41 -14 -60 -28 -55 -42 2 -6 -3 -27 -11 -46
-17 -38 -17 -148 -1 -164 15 -16 10 -36 -9 -36 -10 0 -29 -11 -41 -24 -13 -14
-38 -26 -55 -28 -25 -2 -31 -7 -29 -25 2 -17 -2 -23 -17 -23 -12 0 -23 6 -26
14 -4 10 -15 13 -38 9 -20 -3 -47 1 -67 11 -19 8 -42 14 -53 13 -24 -3 -65 66
-42 71 8 2 18 12 21 23 8 25 55 69 74 69 7 0 29 9 47 21 l34 21 30 -22 c25
-18 30 -28 30 -61 0 -44 -10 -50 -25 -16 -6 13 -19 22 -32 22 -12 0 -25 4 -29
8 -11 11 -34 8 -34 -4 0 -7 -11 -22 -25 -35 -14 -13 -25 -34 -25 -49 0 -20 5
-25 25 -25 31 0 115 20 135 31 8 5 23 12 33 16 15 5 17 12 12 39 -4 26 -1 38
15 54 23 23 20 56 -5 46 -8 -3 -22 -9 -30 -12 -8 -3 -15 -1 -15 5 0 6 6 11 13
11 6 0 20 11 29 24 15 21 15 26 3 36 -7 6 -11 18 -8 26 4 11 -4 14 -32 14 -42
0 -75 -28 -75 -65 0 -13 -7 -29 -16 -36 -19 -16 -82 -39 -107 -39 -36 0 -77
-29 -77 -55 0 -26 -25 -45 -59 -45 -12 0 -21 7 -21 15 0 25 -18 17 -35 -17
-15 -30 -15 -33 3 -48 11 -8 22 -23 25 -32 9 -24 27 -23 27 2 0 11 5 20 11 20
6 0 9 -12 7 -27 -2 -22 3 -32 25 -45 15 -10 27 -27 27 -38 0 -12 10 -25 25
-32 33 -15 32 -38 -1 -38 -23 0 -25 -2 -14 -15 12 -14 15 -14 31 1 16 15 25
15 66 4 27 -6 58 -17 70 -22 16 -8 32 -7 62 6 24 9 41 12 41 6 0 -6 -13 -13
-30 -16 -17 -4 -30 -13 -30 -21 0 -12 8 -14 38 -8 20 4 44 13 52 20 8 7 41 21
72 30 66 19 76 29 54 54 -23 26 -20 31 19 31 23 0 39 -6 47 -19 6 -10 17 -17
23 -15 26 10 45 -32 48 -102 2 -67 1 -69 -23 -72 -32 -4 -106 -38 -115 -53 -4
-6 -2 -16 3 -21 7 -7 8 -17 2 -29 -7 -13 -2 -39 20 -95 18 -46 29 -95 29 -119
-3 -60 8 -93 51 -161 21 -34 45 -77 53 -96 15 -35 128 -158 146 -158 20 0 22
21 6 65 -18 55 -18 56 -2 52 7 -1 13 12 15 33 2 19 9 42 16 50 7 8 17 24 21
35 7 16 10 9 15 -30 3 -27 2 -54 -2 -59 -4 -5 5 -17 19 -26 24 -14 31 -14 55
-2 23 11 26 17 18 33 -14 25 4 59 30 59 24 0 28 38 5 46 -18 7 -20 38 -2 31 6
-2 20 0 30 5 13 7 24 5 36 -6 10 -10 35 -16 61 -16 l44 0 -32 33 c-18 18 -32
38 -32 45 0 19 -10 14 -32 -14 l-20 -25 -20 20 c-10 12 -24 21 -31 21 -7 0 -4
5 6 11 19 11 22 55 7 109 -8 26 -6 39 6 57 8 13 12 28 8 34 -9 15 75 179 91
179 8 0 15 5 17 11 2 6 13 9 23 6 19 -5 19 -5 -1 -12 -21 -7 -54 -53 -54 -77
0 -7 -7 -26 -15 -42 -15 -28 -13 -46 6 -46 5 0 9 5 9 10 0 13 37 50 50 50 16
0 12 -18 -7 -28 -25 -14 -9 -39 30 -46 19 -4 41 -13 47 -22 11 -13 15 -13 31
2 26 23 35 10 15 -20 -13 -21 -14 -26 -2 -33 16 -9 46 -77 46 -104 0 -9 -14
-27 -31 -39 -34 -25 -33 -31 8 -34 15 -2 40 -6 56 -11 20 -5 27 -4 27 7 0 8 6
23 14 33 12 17 17 18 39 6 33 -18 50 -6 43 30 -8 39 -1 36 29 -11 l25 -40 94
1 c72 0 96 4 100 15 8 20 17 18 49 -11 37 -36 36 -65 -3 -65 -24 0 -30 4 -30
21 0 16 -4 19 -22 14 -36 -11 -45 -25 -25 -36 9 -6 17 -19 17 -29 0 -12 9 -21
23 -24 33 -7 57 -4 57 7 0 5 6 5 13 -2 15 -12 85 -12 93 1 3 4 12 8 21 8 9 0
21 8 28 17 11 15 17 15 39 5 19 -8 33 -9 46 -2 10 5 30 10 44 10 21 0 25 -4
23 -22 -2 -20 4 -24 38 -28 40 -5 40 -5 43 -52 2 -29 -1 -48 -7 -48 -23 0 -9
-19 16 -22 33 -4 53 -57 28 -71 -9 -4 -13 -13 -9 -19 4 -7 9 -7 13 1 4 6 5
-16 3 -49 l-4 -60 55 -51 c48 -44 55 -55 51 -78 -3 -15 -1 -46 6 -69 6 -23 12
-83 14 -132 4 -81 2 -90 -14 -90 -21 0 -42 73 -38 132 2 42 -18 72 -44 65 -13
-4 -20 2 -24 19 -4 14 -16 29 -27 36 -28 14 -194 17 -215 3 -17 -11 -112 -12
-129 -2 -15 10 -77 -16 -108 -45 -19 -18 -36 -26 -47 -22 -19 6 -89 -15 -99
-30 -11 -15 -49 5 -55 29 -6 26 -36 41 -55 29 -8 -4 -10 -33 -7 -87 4 -62 9
-83 23 -93 17 -13 20 -10 34 33 21 62 55 82 88 51 12 -11 29 -18 37 -15 21 8
28 -17 32 -111 2 -45 6 -87 9 -92 4 -6 4 -14 0 -19 -3 -5 -1 -12 5 -16 5 -3
10 -1 10 5 0 6 10 10 23 8 20 -3 22 -7 19 -65 -4 -58 -2 -62 19 -65 18 -2 26
-12 32 -40 5 -22 15 -38 23 -38 16 0 19 -36 5 -45 -5 -3 -16 4 -24 16 -14 19
-19 20 -72 10 -32 -6 -77 -21 -101 -33 l-44 -22 -31 23 c-22 16 -38 21 -58 16
-23 -5 -29 -2 -34 15 -3 14 -10 18 -21 14 -10 -4 -25 1 -37 12 -16 14 -22 15
-32 5 -9 -11 -9 -14 1 -18 6 -3 12 -15 12 -27 0 -12 4 -26 10 -32 5 -5 10 -25
11 -44 2 -19 9 -42 17 -52 7 -9 24 -42 36 -73 20 -47 24 -53 29 -34 4 13 1 29
-5 36 -18 22 -47 177 -29 157 4 -5 14 -25 21 -44 7 -19 19 -42 25 -50 17 -21
45 -97 45 -119 0 -11 5 -21 12 -23 7 -3 12 -17 13 -33 0 -15 6 -30 13 -32 8
-3 12 5 12 23 0 22 3 25 12 16 9 -9 7 -21 -10 -51 -26 -45 -28 -65 -7 -57 10
3 17 -3 21 -21 10 -37 77 -105 107 -108 53 -6 69 -16 64 -38 -3 -12 -10 -38
-14 -57 -10 -40 -35 -50 -63 -25 -10 9 -31 17 -47 16 -15 0 -37 0 -48 -1 -11
0 -53 4 -93 8 -40 5 -75 5 -78 0 -3 -4 -18 -1 -34 7 -16 8 -36 15 -44 15 -9 0
-19 12 -22 26 -5 21 -11 24 -30 20 -35 -9 -90 28 -112 77 -31 66 -34 79 -38
140 -2 43 -10 68 -32 100 -20 30 -26 49 -22 63 4 10 1 34 -6 53 -8 19 -12 36
-9 39 2 3 23 6 46 8 42 3 79 27 79 51 0 7 7 16 15 19 8 4 15 12 15 20 0 8 4
14 8 14 24 0 46 31 48 68 1 34 -2 41 -20 46 -46 12 -59 8 -52 -19 6 -23 5 -24
-13 -13 -28 17 -47 -1 -32 -31 10 -17 8 -24 -9 -38 -11 -10 -20 -23 -20 -29 0
-19 -26 -24 -46 -9 -16 11 -16 15 -5 29 8 9 11 19 7 23 -10 10 -22 -8 -36 -50
-11 -35 -14 -38 -39 -31 -14 4 -33 7 -43 8 -11 0 -18 12 -22 38 -5 32 -10 38
-31 38 -18 0 -28 7 -35 24 -5 13 -15 26 -22 29 -7 2 -10 7 -6 11 3 4 16 1 27
-6 17 -10 25 -10 39 0 9 7 24 15 32 18 68 27 80 36 80 58 0 15 -10 30 -27 41
-25 17 -27 17 -39 0 -7 -10 -15 -23 -17 -28 -2 -7 -14 -6 -36 3 -35 14 -47 37
-61 110 -11 56 -33 120 -41 120 -13 0 -47 -85 -38 -95 13 -13 11 -41 -3 -53
-17 -14 -68 -3 -68 14 0 8 -9 19 -20 26 -11 7 -20 18 -20 24 0 6 -9 19 -20 29
-16 14 -20 31 -20 75 0 31 -6 78 -14 103 -8 26 -12 47 -8 47 3 0 -3 9 -12 19
-14 15 -15 24 -7 39 6 11 12 52 15 92 5 80 11 94 31 66 16 -21 35 -14 35 13 0
22 31 51 55 51 12 0 0 14 -33 40 -47 37 -112 130 -112 159 0 7 -13 31 -28 54
-37 57 -51 86 -54 121 -4 38 -28 48 -28 12 0 -14 -4 -26 -10 -26 -5 0 -7 20
-3 49 6 53 -11 79 -30 45 -14 -26 -63 -74 -75 -74 -18 0 -23 62 -7 93 8 17 15
42 15 57 0 15 3 30 8 34 4 4 8 27 8 52 1 42 0 43 -24 37 -18 -4 -29 0 -41 16
-17 22 -17 22 -41 4 -50 -37 -116 -63 -170 -65 l-55 -3 0 -58 c0 -55 0 -57
-25 -55 -21 3 -26 -2 -30 -30 -5 -36 -9 -37 -57 -14 -36 17 -41 33 -18 52 21
18 48 76 48 105 0 14 5 25 13 25 25 0 26 22 3 38 -13 9 -42 22 -64 28 -22 6
-48 15 -59 19 -17 7 -18 4 -14 -23 2 -18 0 -32 -5 -32 -5 0 -7 19 -5 45 3 26
1 45 -4 45 -17 0 -47 -44 -42 -62 3 -9 0 -19 -6 -23 -5 -3 -10 3 -10 14 0 29
-16 34 -45 15 l-26 -17 22 -23 c13 -13 17 -24 11 -24 -7 0 -12 -5 -12 -10 0
-7 6 -7 18 -2 32 17 42 4 36 -48 -5 -42 -3 -49 15 -55 27 -8 28 -53 2 -86 -26
-34 -33 -63 -21 -93 9 -24 7 -28 -18 -39 -39 -17 -62 -44 -62 -70 0 -24 28
-57 48 -57 6 0 16 -9 22 -20 10 -19 9 -20 -13 -15 -14 4 -27 3 -30 -2 -9 -14
8 -78 20 -78 20 0 55 -54 48 -73 -6 -15 -8 -15 -22 6 -35 51 -45 10 -14 -60
25 -57 79 -113 116 -122 52 -13 60 -53 19 -91 -33 -31 -27 -52 36 -116 l48
-49 3 -80 c4 -77 5 -80 44 -120 44 -45 55 -49 55 -20 0 11 5 20 10 20 6 0 10
10 10 22 0 12 8 30 17 40 23 26 4 45 -28 26 -44 -25 -49 -34 -34 -54 26 -34
16 -35 -18 -2 -26 25 -31 35 -20 41 7 4 13 14 13 21 0 42 93 65 105 26 8 -24
45 -27 78 -6 12 8 42 14 67 14 65 -2 120 24 120 56 0 15 5 26 10 26 6 0 10 -9
10 -20 0 -14 7 -20 23 -20 25 0 49 -22 61 -54 3 -11 12 -16 21 -12 17 6 30
-10 15 -19 -6 -4 -17 -1 -25 5 -8 6 -19 9 -24 6 -6 -4 -15 2 -21 13 -10 20
-10 20 -46 -1 -28 -16 -46 -20 -87 -15 -65 6 -107 -1 -107 -19 0 -8 7 -14 16
-14 8 0 12 -5 9 -10 -4 -6 -25 -9 -48 -8 -38 3 -42 1 -40 -20 2 -16 -2 -22
-17 -22 -29 0 -55 -34 -68 -91 -18 -77 -13 -89 13 -34 16 35 24 44 24 28 1
-12 -3 -24 -8 -28 -5 -3 -13 -20 -16 -37 -4 -18 -16 -44 -27 -58 -23 -32 -18
-48 25 -77 34 -23 97 -31 97 -13 0 6 7 10 15 10 18 0 20 -17 3 -23 -10 -3 -10
-9 0 -26 15 -26 15 -46 0 -71 -11 -17 -10 -22 2 -30 13 -9 13 -12 -4 -25 -14
-11 -22 -11 -37 -2 -16 10 -21 9 -29 -3 -11 -17 -13 -54 -4 -63 4 -3 8 -25 9
-47 4 -51 10 -58 33 -37 15 13 21 14 31 4 10 -9 15 -8 27 8 18 24 13 39 -12
43 -56 8 -68 13 -53 22 7 5 22 7 31 4 12 -4 19 2 24 20 6 25 7 25 23 7 14 -17
93 -45 146 -53 15 -2 21 -12 23 -36 2 -19 11 -38 23 -45 20 -12 26 -37 9 -37
-5 0 -10 -12 -10 -26 0 -34 -34 -29 -38 6 -4 30 -17 45 -40 45 -12 0 -18 10
-20 33 -2 20 -8 32 -15 29 -7 -2 -11 -14 -9 -25 4 -27 -39 -47 -68 -32 -13 7
-26 5 -47 -5 -15 -8 -36 -15 -45 -15 -12 0 -19 -12 -24 -45 -6 -44 -24 -63
-24 -26 0 26 -10 51 -21 51 -5 0 -9 -7 -9 -15 0 -25 -40 -17 -50 10 -6 16 -14
23 -25 19 -20 -8 -19 -17 8 -69 27 -50 26 -108 -1 -103 -9 2 -19 14 -22 27 -3
14 -12 27 -20 29 -13 5 -13 3 -2 -11 8 -9 11 -21 7 -27 -11 -18 -59 -11 -73
10 -7 12 -23 20 -41 20 -24 0 -30 -5 -34 -29 -7 -32 -41 -51 -60 -32 -7 7 -5
16 8 31 23 25 17 32 -21 21 -43 -11 -41 -36 7 -82 l43 -41 -39 4 c-26 2 -40
-1 -43 -11 -3 -8 0 -11 7 -7 6 4 11 1 11 -8 0 -20 -19 -31 -33 -17 -6 6 -19
11 -29 11 -13 0 -18 -8 -18 -30 0 -20 5 -30 15 -30 9 0 21 -11 27 -25 9 -21 8
-28 -7 -45 -10 -11 -26 -20 -36 -20 -25 0 -34 37 -14 60 24 26 0 35 -26 9 -16
-16 -19 -28 -15 -54 9 -44 -1 -67 -25 -60 -10 4 -24 1 -31 -5 -7 -5 -26 -21
-41 -35 -15 -14 -30 -25 -33 -25 -10 0 -3 30 12 44 8 9 11 16 6 16 -5 0 -13
16 -17 36 -5 31 -9 35 -30 30 -16 -4 -25 -1 -29 11 -7 18 9 33 37 33 23 0 22
4 -8 34 -26 26 -33 70 -13 82 6 4 17 -1 24 -11 8 -10 16 -16 20 -13 3 4 -5 20
-17 37 -16 22 -28 29 -42 25 -34 -11 -85 5 -92 29 -4 12 -9 30 -11 40 -4 11 0
17 10 17 10 0 16 -9 16 -21 0 -16 4 -19 18 -14 9 4 28 10 42 13 14 2 34 13 45
23 13 12 29 16 43 12 22 -5 56 13 47 27 -2 4 -27 10 -55 14 -34 5 -54 13 -63
26 -15 26 -47 26 -54 0 -3 -11 -13 -20 -22 -20 -9 -1 -27 -17 -39 -38 -22 -34
-23 -38 -8 -62 16 -28 12 -58 -14 -98 -15 -22 -50 -31 -50 -12 0 6 -6 10 -12
9 -24 -3 -38 1 -38 11 0 6 11 10 24 10 32 0 36 7 29 58 -5 35 -8 40 -20 31 -7
-7 -16 -10 -18 -7 -7 6 -6 61 1 148 5 65 3 78 -12 90 -16 14 -17 13 -12 -13 3
-15 1 -30 -3 -33 -5 -3 -9 -16 -9 -30 0 -42 -19 -26 -22 18 -2 24 -7 42 -13
41 -17 -5 -17 -112 1 -168 15 -49 15 -55 0 -76 -22 -31 -20 -56 7 -108 22 -44
74 -84 99 -77 7 3 26 7 41 10 l28 7 -17 -27 c-14 -21 -15 -30 -6 -45 7 -10 12
-26 12 -35 0 -15 -2 -15 -21 2 -11 10 -18 26 -16 36 6 20 -8 34 -18 18 -3 -5
-15 -10 -27 -10 -11 0 -31 -9 -45 -20 -14 -11 -29 -17 -34 -14 -5 3 -9 1 -9
-3 0 -14 23 -40 40 -46 8 -3 3 -6 -12 -6 -31 -1 -41 -12 -32 -35 9 -22 57 -20
79 4 10 11 22 17 27 14 5 -4 16 3 24 15 8 12 25 21 38 21 12 0 33 10 45 21 18
17 22 28 17 53 -4 17 -8 41 -9 53 -1 12 -8 28 -14 35 -14 13 -18 68 -5 68 4 0
23 -13 42 -29 l35 -29 2 -98 c1 -55 2 -115 3 -134 2 -57 -8 -111 -25 -130 -31
-34 -10 -128 44 -192 38 -45 39 -52 4 -45 -15 3 -36 1 -45 -4 -13 -7 -18 -6
-18 5 0 7 7 17 16 20 18 7 10 46 -12 59 -8 4 -14 16 -14 25 0 10 -4 22 -10 28
-12 12 -15 53 -6 75 5 12 -3 25 -26 44 -21 17 -28 29 -20 32 17 7 5 23 -19 23
-10 0 -19 7 -19 15 0 19 29 19 54 0 14 -10 24 -11 38 -4 28 15 20 93 -10 97
-17 3 -22 -2 -22 -20 0 -20 -8 -26 -47 -36 -54 -14 -113 -42 -113 -54 0 -13
-50 -9 -50 5 -1 6 -7 0 -15 -14 -9 -16 -26 -29 -44 -32 -23 -5 -32 -13 -37
-34 -10 -49 -13 -53 -33 -53 -11 0 -23 -5 -26 -10 -3 -6 0 -10 8 -10 23 0 190
-99 245 -146 2 -1 -6 -7 -17 -14 -17 -9 -28 -7 -51 7 -17 9 -30 21 -30 25 0 4
-5 8 -11 8 -6 0 -28 14 -49 30 -41 32 -116 64 -131 54 -5 -3 -9 -13 -9 -24 0
-23 -26 -33 -43 -16 -11 12 -15 11 -25 -5 -6 -10 -9 -25 -6 -33 3 -8 -4 -36
-17 -63 -12 -26 -21 -57 -20 -69 1 -11 -14 -44 -34 -73 -19 -29 -35 -57 -35
-62 0 -23 25 -59 41 -59 10 0 25 -13 33 -28 17 -33 67 -64 73 -45 3 8 12 9 29
3 13 -5 52 -7 87 -4 59 5 61 4 32 -9 -28 -13 -20 -14 100 -17 317 -5 325 -6
325 -26 0 -12 7 -15 25 -12 21 4 26 0 36 -29 15 -46 6 -51 -36 -18 -39 29 -59
27 -32 -3 10 -10 17 -23 17 -29 0 -21 51 -121 64 -126 8 -3 17 -30 21 -63 9
-73 13 -84 35 -84 11 0 22 12 29 31 14 41 14 50 -1 48 -35 -4 -40 1 -33 33 19
96 18 114 -10 137 -28 22 -37 60 -36 164 l1 38 -43 -5 c-126 -16 -168 -20
-227 -21 -36 -1 -81 -5 -101 -9 -25 -5 -39 -4 -44 4 -13 21 11 31 81 35 198
10 280 18 291 27 7 6 43 12 80 14 38 2 118 8 178 14 61 6 137 14 170 17 34 3
64 12 70 20 9 11 16 12 40 3 l30 -11 -28 -21 c-17 -13 -48 -21 -84 -24 -85 -6
-374 -43 -384 -50 -5 -3 -6 -17 -3 -32 12 -53 29 -82 56 -93 27 -11 39 -39 18
-39 -5 0 -10 -7 -10 -15 0 -8 5 -15 10 -15 6 0 10 -17 10 -38 0 -45 22 -79 53
-84 14 -2 23 -11 25 -26 4 -25 10 -27 35 -8 24 18 21 35 -8 58 -14 11 -25 25
-25 31 0 7 -9 18 -20 25 -11 7 -20 19 -20 27 0 23 28 18 44 -8 9 -12 39 -33
69 -46 34 -15 60 -35 72 -55 29 -47 30 -50 4 -43 -30 8 -54 -10 -38 -29 18
-22 1 -32 -41 -27 -32 4 -40 2 -40 -10 0 -8 6 -17 14 -20 14 -6 16 -65 2 -97
-12 -29 8 -43 48 -32 21 6 38 7 42 1 3 -5 65 -9 138 -9 132 0 133 0 144 25 6
14 30 45 52 69 22 24 40 47 40 53 0 15 70 37 82 25 16 -16 4 -47 -20 -50 -40
-6 -23 -19 33 -25 68 -7 84 -16 61 -33 -10 -7 -24 -10 -32 -7 -15 5 -64 -32
-64 -49 0 -4 763 -8 1695 -8 l1695 0 0 62 c0 47 -7 76 -25 113 -31 63 -31 71
0 79 l25 6 0 2765 0 2765 -24 0 c-25 0 -51 22 -39 33 3 4 19 7 35 7 l28 0 0
341 0 341 -37 -7 c-26 -4 -44 -1 -58 9 -22 16 -86 10 -97 -9 -5 -8 -24 -10
-58 -7 -33 3 -50 1 -50 -7 0 -6 -7 -11 -15 -11 -8 0 -15 9 -15 20 0 11 -4 20
-10 20 -5 0 -10 -18 -10 -40 0 -26 -4 -40 -13 -40 -20 0 -45 23 -49 45 -2 13
-12 21 -31 23 -23 3 -27 0 -27 -22 0 -32 -13 -33 -33 -3 -14 21 -13 24 1 34
16 10 15 12 -1 18 -28 11 -44 -13 -49 -72 -5 -53 4 -67 29 -42 16 16 28 -8 13
-26 -10 -12 -9 -15 9 -15 11 0 21 -4 21 -10 0 -5 -8 -10 -19 -10 -10 0 -24 -7
-31 -15 -10 -12 -28 -15 -64 -13 -44 3 -51 6 -56 28 -4 19 -13 26 -38 28 -18
2 -32 -1 -32 -6 0 -15 -57 -32 -106 -32 -47 0 -58 15 -22 29 l23 8 -23 7 c-12
4 -22 14 -22 21 0 8 -10 19 -21 26 -18 9 -27 7 -50 -10 -15 -11 -30 -17 -33
-12 -3 5 1 12 10 15 13 5 14 9 4 21 -9 11 -16 12 -25 5 -16 -13 -25 -2 -25 30
0 18 7 31 23 38 18 9 19 11 4 11 -10 1 -28 7 -40 14 -33 21 -118 11 -124 -14
-6 -21 -29 -25 -53 -9 -13 9 -13 12 2 24 15 11 3 13 -77 14 -85 2 -94 0 -89
-16 5 -16 5 -16 -9 1 -21 26 -37 21 -37 -13 0 -25 -4 -30 -25 -30 -33 0 -77
29 -71 46 7 18 -36 19 -65 2 -17 -10 -23 -10 -26 0 -3 7 -23 12 -49 12 -41 0
-44 -2 -44 -26 0 -22 -3 -25 -22 -20 -13 3 -26 6 -30 6 -5 0 -8 9 -8 20 0 12
-7 20 -17 20 -14 0 -18 -8 -16 -32 1 -18 2 -35 2 -37 1 -2 7 2 15 8 10 8 19 5
40 -14 15 -14 31 -25 37 -25 14 0 12 -4 -32 -53 -35 -38 -45 -44 -61 -36 -14
7 -20 6 -24 -5 -10 -27 6 -38 31 -22 16 11 26 12 31 5 3 -6 15 -9 25 -6 32 9
77 -90 49 -108 -5 -3 -10 3 -10 14 0 12 -4 21 -9 21 -16 0 -23 -57 -10 -81 11
-22 12 -22 25 -4 11 15 16 16 29 5 22 -18 18 -40 -7 -40 -30 0 -54 -15 -40
-24 14 -8 4 -36 -12 -36 -7 0 -18 11 -24 25 -15 32 -15 38 -2 30 15 -9 12 9
-5 31 -15 19 -16 18 -39 -8 -36 -40 -59 -38 -34 2 15 24 4 37 -17 20 -25 -20
-29 -4 -7 25 19 24 21 24 30 8 8 -14 13 -15 25 -5 8 7 17 24 20 38 6 33 -20
47 -96 51 -57 4 -58 3 -52 -19 6 -19 5 -21 -6 -10 -7 6 -20 12 -28 12 -11 0
-10 -4 4 -20 16 -18 16 -20 1 -26 -9 -3 -16 -9 -16 -13 0 -11 47 -31 70 -31
24 0 25 -4 4 -35 -9 -14 -25 -25 -35 -25 -26 0 -24 16 3 23 32 9 6 36 -28 29
-18 -3 -29 1 -40 17 -21 29 -36 26 -32 -6 2 -24 -1 -28 -23 -31 -34 -4 -57 23
-41 48 9 15 8 17 -9 13 -16 -4 -19 -11 -15 -29 10 -37 -13 -38 -29 -1 -8 19
-21 37 -28 40 -22 8 -17 81 6 85 12 3 20 -4 24 -17 3 -12 9 -21 13 -21 5 0 17
-3 27 -6 12 -4 7 5 -13 24 -39 36 -45 54 -26 68 23 17 6 37 -18 22 -11 -7 -23
-9 -27 -5 -4 5 -1 12 7 18 13 8 13 10 0 19 -11 6 -17 4 -24 -8 -5 -9 -11 -19
-13 -22 -7 -8 -23 24 -23 48 0 20 -4 22 -22 16 -13 -4 -29 -15 -36 -25 -7 -11
-21 -19 -31 -19 -15 0 -18 8 -18 39 0 34 3 40 32 51 29 11 32 15 22 32 -7 10
-20 18 -30 18 -15 0 -16 -3 -7 -20 9 -17 8 -20 -10 -20 -11 0 -30 9 -42 20
-22 20 -68 28 -68 11 0 -5 9 -12 19 -16 11 -3 25 -13 32 -21 11 -13 3 -14 -67
-8 -43 3 -83 10 -89 15 -5 6 -4 9 3 9 7 0 12 7 12 15 0 21 -18 19 -25 -4 -3
-11 -19 -24 -36 -30 -35 -12 -31 -31 5 -24 13 3 27 0 30 -6 4 -6 15 -11 25
-11 13 0 21 -10 25 -32 7 -34 41 -78 61 -78 7 0 20 -9 31 -21 16 -17 16 -22 4
-29 -8 -6 -21 -10 -27 -10 -7 0 -13 -12 -13 -27 0 -22 -2 -25 -10 -13 -5 8
-10 25 -10 37 0 16 -12 29 -40 43 -23 12 -43 27 -47 35 -3 8 -11 15 -19 15 -8
0 -14 5 -14 11 0 7 -11 8 -30 4 -19 -4 -41 -1 -62 9 -37 19 -48 14 -25 -11 12
-14 13 -23 5 -37 -8 -15 -12 -16 -19 -5 -5 8 -9 24 -9 37 0 12 -6 25 -14 28
-26 10 -52 -14 -68 -65 -14 -43 -14 -52 -2 -62 8 -6 14 -15 14 -20 0 -12 -37
-11 -45 1 -3 6 -17 7 -30 4 -20 -5 -25 -1 -31 20 -8 33 -39 53 -48 31 -7 -19
-50 -20 -65 -1 -13 15 -4 96 10 96 5 0 9 -7 9 -15 0 -8 6 -15 14 -15 8 0 21
-9 29 -20 13 -18 15 -19 21 -5 10 28 50 15 54 -17 4 -34 20 -36 31 -6 5 15 3
31 -8 50 -13 23 -23 28 -55 28 -36 0 -38 2 -32 25 6 23 -7 35 -18 17 -3 -5
-22 -8 -43 -6 -21 1 -48 2 -59 3 -25 1 -40 29 -25 44 7 7 15 6 25 -2 11 -9 20
-10 36 -1 24 13 18 30 -10 30 -10 0 -22 5 -25 10 -4 6 -83 10 -205 10 -195 0
-198 0 -193 -21z m1838 -20 c11 -17 0 -20 -21 -4 -17 13 -17 14 -2 15 9 0 20
-5 23 -11z m62 -14 c-7 -13 -14 -20 -15 -14 -2 5 2 16 8 24 18 21 20 18 7 -10z
m453 5 c0 -11 5 -20 10 -20 6 0 10 6 10 14 0 15 27 29 40 21 9 -6 -37 -95 -48
-95 -4 1 -17 21 -29 45 -15 31 -18 45 -10 49 22 9 27 6 27 -14z m-2097 -40 c3
-11 1 -23 -4 -26 -15 -9 -39 15 -32 32 8 21 30 17 36 -6z m1595 -12 c-5 -16
-48 -24 -48 -10 0 11 17 20 38 21 8 1 12 -5 10 -11z m1367 -8 c4 -6 -9 -10
-32 -9 -34 1 -35 2 -13 9 35 11 38 11 45 0z m-1315 -25 c0 -8 0 -18 1 -22 0
-4 -4 -9 -10 -11 -6 -2 -11 8 -11 22 0 14 5 26 10 26 6 0 10 -7 10 -15z m-735
-21 c26 7 85 -20 85 -39 0 -17 -20 -32 -49 -37 -18 -2 -27 -12 -33 -33 -4 -16
-16 -36 -25 -43 -17 -13 -17 -14 0 -26 18 -14 23 -36 7 -36 -14 0 -32 40 -26
57 4 9 1 22 -5 29 -11 13 -10 29 6 67 5 13 3 16 -8 11 -22 -8 -43 32 -27 51 9
11 17 12 32 4 11 -6 30 -8 43 -5z m1389 -3 c3 -5 0 -11 -8 -14 -15 -6 -26 1
-26 15 0 11 27 10 34 -1z m-1674 -53 c0 -14 -15 -8 -27 11 -15 24 -3 38 14 15
7 -10 13 -21 13 -26z m1248 15 c3 -23 -12 -31 -23 -13 -3 6 -17 10 -31 10 -15
0 -24 6 -24 16 0 12 9 14 38 12 30 -2 38 -7 40 -25z m-1798 7 c0 -5 -7 -10
-16 -10 -8 0 -12 5 -9 10 3 6 10 10 16 10 5 0 9 -4 9 -10z m80 -6 c0 -8 -5
-12 -10 -9 -6 4 -8 11 -5 16 9 14 15 11 15 -7z m873 0 c8 -8 -3 -34 -14 -34
-5 0 -9 9 -9 20 0 19 11 26 23 14z m526 -3 c7 -5 10 -14 7 -20 -8 -13 -46 3
-46 19 0 12 20 13 39 1z m-1906 -47 c-8 -21 -23 -17 -23 6 0 13 5 18 14 14 8
-3 12 -12 9 -20z m892 -19 c0 -43 -29 -40 -33 3 -3 28 0 33 15 30 13 -2 18
-12 18 -33z m149 14 c14 -7 23 -15 21 -19 -8 -12 -65 2 -65 16 0 17 11 18 44
3z m1076 -55 c0 -13 7 -27 15 -30 30 -12 10 -64 -24 -64 -8 0 -22 7 -32 16
-23 21 -46 8 -26 -14 10 -12 12 -24 6 -39 -12 -31 -47 -30 -59 2 -5 14 -14 25
-20 25 -5 0 -10 3 -10 8 0 8 99 57 117 57 21 0 26 14 7 22 -10 4 -28 15 -38
25 -16 14 -17 20 -7 32 20 24 71 -5 71 -40z m-160 7 c0 -5 9 -13 20 -16 30 -9
25 -35 -6 -35 -21 0 -25 -4 -21 -20 7 -26 0 -25 -24 3 -18 22 -25 58 -12 70
10 10 43 8 43 -2z m-1358 -33 c-15 -15 -26 -4 -18 18 5 13 9 15 18 6 9 -9 9
-15 0 -24z m338 -5 c0 -23 20 -24 29 -1 8 20 10 21 16 5 11 -26 -3 -87 -20
-87 -8 0 -15 -9 -15 -20 0 -25 -25 -37 -44 -21 -15 12 -52 -1 -68 -24 -10 -14
-25 3 -33 38 -7 26 -6 27 30 27 24 0 42 6 51 18 10 14 15 15 25 5 21 -21 30
-15 23 15 -9 38 -24 53 -45 47 -21 -7 -25 5 -8 22 13 13 59 -6 59 -24z m108
26 c-2 -6 -8 -10 -13 -10 -5 0 -11 4 -13 10 -2 6 4 11 13 11 9 0 15 -5 13 -11z
m302 7 c0 -3 -4 -8 -10 -11 -5 -3 -10 -1 -10 4 0 6 5 11 10 11 6 0 10 -2 10
-4z m-22 -29 c6 -5 12 -6 12 -2 0 4 6 2 13 -4 8 -6 17 -8 20 -4 12 11 47 -29
47 -54 0 -30 -14 -29 -38 2 -25 32 -32 31 -32 -1 l0 -26 -29 30 c-17 16 -33
41 -37 56 -5 23 -4 25 12 20 11 -4 25 -11 32 -17z m1302 -47 c6 0 8 -4 5 -10
-3 -5 -19 -10 -36 -10 -24 0 -29 4 -29 24 0 13 -3 33 -7 43 -4 11 6 5 24 -14
17 -18 36 -33 43 -33z m-2034 -27 c-7 -17 -8 -17 -17 0 -12 21 -2 44 13 29 6
-6 8 -19 4 -29z m104 1 c0 -8 -11 -14 -26 -14 -14 0 -23 3 -21 8 2 4 7 15 11
26 5 15 9 16 21 6 8 -7 15 -19 15 -26z m550 -5 c0 -12 -27 -11 -35 1 -11 17 5
32 21 19 8 -6 14 -15 14 -20z m-1015 1 c3 -5 2 -10 -4 -10 -5 0 -13 5 -16 10
-3 6 -2 10 4 10 5 0 13 -4 16 -10z m100 0 c3 -5 1 -10 -4 -10 -6 0 -11 5 -11
10 0 6 2 10 4 10 3 0 8 -4 11 -10z m994 -27 c11 -9 9 -13 -9 -23 -17 -9 -29
-9 -52 1 l-31 13 29 23 c23 18 31 20 39 10 6 -6 17 -17 24 -24z m171 27 c0 -5
-9 -10 -20 -10 -11 0 -20 5 -20 10 0 6 9 10 20 10 11 0 20 -4 20 -10z m-452
-32 c10 -26 9 -35 -3 -48 -8 -9 -15 -28 -15 -42 0 -29 -55 -98 -79 -98 -10 0
-26 -7 -37 -15 -11 -9 -40 -14 -74 -14 l-55 1 55 13 c79 20 130 43 130 60 0 8
5 15 10 15 6 0 10 7 10 16 0 9 8 29 17 44 14 24 15 33 4 56 -10 22 -9 29 1 35
20 13 23 11 36 -23z m-372 -2 c16 -13 17 -15 3 -21 -20 -8 -72 12 -64 25 9 14
38 12 61 -4z m1509 -65 c-5 -22 -12 -31 -26 -31 -25 0 -24 18 3 47 26 28 32
24 23 -16z m-1285 19 c0 -5 -7 -10 -16 -10 -8 0 -12 5 -9 10 3 6 10 10 16 10
5 0 9 -4 9 -10z m70 0 c0 -5 -4 -10 -10 -10 -5 0 -10 5 -10 10 0 6 5 10 10 10
6 0 10 -4 10 -10z m-626 -31 c30 -24 32 -38 10 -82 -16 -30 -17 -30 -25 -10
-9 25 -27 38 -53 38 -19 0 -41 49 -30 67 10 16 71 8 98 -13z m516 6 c0 -8 -4
-15 -10 -15 -5 0 -10 7 -10 15 0 8 5 15 10 15 6 0 10 -7 10 -15z m250 -9 c0
-11 -19 -15 -25 -6 -3 5 1 10 9 10 9 0 16 -2 16 -4z m-616 -24 c8 -13 -11 -35
-23 -28 -16 10 -14 36 3 36 8 0 17 -4 20 -8z m1399 -18 c-4 -10 5 -19 26 -27
17 -6 30 -16 28 -22 -7 -19 -42 -15 -71 9 -24 20 -26 26 -17 44 13 23 43 19
34 -4z m638 -29 c-23 -46 -61 -63 -61 -28 0 18 70 87 78 78 3 -3 -5 -25 -17
-50z m919 -27 c0 -13 -23 -5 -28 10 -2 7 2 10 12 6 9 -3 16 -11 16 -16z
m-1872 -71 c14 -38 6 -97 -13 -97 -16 0 -25 32 -25 88 0 52 21 57 38 9z
m-1179 -56 c11 -7 5 -13 -24 -25 -48 -21 -48 -21 -29 9 17 27 30 30 53 16z
m110 -10 c12 -7 12 -13 3 -24 -15 -18 -5 -28 23 -21 13 3 26 1 29 -5 5 -7 -4
-11 -23 -11 -16 0 -36 -3 -44 -6 -18 -7 -29 20 -21 52 7 26 12 28 33 15z m131
-102 c0 -5 -7 -9 -15 -9 -8 0 -15 7 -15 15 0 9 6 12 15 9 8 -4 15 -10 15 -15z
m-136 -40 c-10 -16 -24 -9 -24 12 0 18 2 19 15 9 8 -7 12 -16 9 -21z m56 -39
c0 -5 -9 -10 -20 -10 -11 0 -20 5 -20 10 0 6 9 10 20 10 11 0 20 -4 20 -10z
m198 -11 c2 -11 -6 -18 -21 -21 -20 -4 -23 -1 -19 19 5 27 35 28 40 2z m148
-75 c41 -31 74 -60 74 -64 0 -4 24 -11 53 -14 56 -7 121 -44 82 -47 -27 -2
-23 -2 -87 6 -49 5 -58 4 -58 -9 0 -18 -2 -19 -24 -10 -9 3 -16 14 -16 23 0
25 -80 88 -90 71 -10 -16 -43 -5 -37 13 2 6 10 12 18 12 28 0 14 28 -16 32
-36 5 -39 8 -32 28 12 30 58 16 133 -41z m-291 16 c20 -11 40 -20 45 -20 5 0
30 -14 55 -32 46 -32 56 -57 31 -77 -10 -9 -19 -4 -39 22 -26 35 -115 87 -148
87 -18 0 -26 20 -12 33 11 12 31 8 68 -13z m1533 -8 c3 -17 -2 -22 -18 -22
-16 0 -20 -5 -16 -17 3 -12 -9 -34 -33 -63 -37 -43 -40 -44 -65 -31 -24 13
-28 12 -49 -7 -13 -12 -29 -22 -35 -22 -24 0 -10 26 33 60 33 27 44 43 47 70
2 24 9 36 21 38 13 3 17 -4 17 -30 0 -19 -5 -39 -12 -46 -17 -17 -3 -25 21
-12 12 6 21 20 21 31 0 11 7 22 15 25 8 4 15 14 15 23 0 38 33 40 38 3z
m-1398 0 c0 -13 -12 -22 -22 -16 -10 6 -1 24 13 24 5 0 9 -4 9 -8z m-290 -72
c0 -27 7 -86 16 -130 l16 -80 -25 -26 c-28 -27 -45 -18 -27 16 8 14 7 25 -2
39 -10 16 -9 25 1 44 10 19 11 36 2 78 -6 30 -9 63 -7 74 3 11 5 26 5 33 1 7
6 10 11 7 6 -3 10 -28 10 -55z m186 -70 c-47 -24 -46 -24 -46 -6 0 15 19 23
60 24 21 1 19 -2 -14 -18z m1524 -17 c0 -24 -25 -9 -28 17 -3 21 -2 22 12 11
9 -7 16 -20 16 -28z m-1390 -36 c0 -7 20 -42 45 -78 25 -35 45 -74 45 -86 0
-31 -12 -28 -30 6 -8 16 -31 53 -51 83 -21 29 -40 70 -44 91 l-6 38 20 -20
c12 -12 21 -27 21 -34z m-470 -12 c0 -8 -4 -15 -10 -15 -5 0 -10 7 -10 15 0 8
5 15 10 15 6 0 10 -7 10 -15z m1906 -10 c9 -14 13 -32 10 -41 -8 -21 -17 -13
-32 31 -14 41 -2 46 22 10z m-1056 -15 c0 -5 -12 -10 -26 -10 -14 0 -23 4 -19
10 3 6 15 10 26 10 10 0 19 -4 19 -10z m158 -20 l23 -30 -24 0 c-29 0 -52 24
-43 45 8 22 20 18 44 -15z m60 -63 c2 -12 -1 -15 -12 -11 -19 7 -22 38 -3 32
6 -3 13 -12 15 -21z m-418 -137 c0 -5 -2 -10 -4 -10 -3 0 -8 5 -11 10 -3 6 -1
10 4 10 6 0 11 -4 11 -10z m85 -20 c-3 -5 -15 -10 -26 -10 -10 0 -19 5 -19 10
0 6 12 10 26 10 14 0 23 -4 19 -10z m1512 -5 c19 -8 41 -15 48 -15 12 0 84
-43 143 -85 22 -16 52 -74 52 -101 0 -21 -92 47 -109 80 -14 30 -88 69 -131
69 -58 0 -100 -14 -100 -33 0 -24 29 -33 77 -24 l38 7 -27 -26 c-27 -25 -38
-57 -20 -57 12 0 32 -46 25 -54 -14 -14 -33 -4 -33 17 0 16 -8 26 -26 33 -19
6 -32 25 -50 68 -13 33 -24 64 -24 70 0 12 77 66 92 66 5 0 25 -7 45 -15z
m-1328 -21 c2 -2 -10 -4 -27 -4 -18 0 -32 5 -32 10 0 9 47 4 59 -6z m74 -141
c11 -10 -14 -33 -36 -33 -20 0 -20 0 -1 19 21 22 27 24 37 14z m-444 -17 c8
-9 8 -16 2 -20 -6 -4 -15 3 -21 14 -12 23 2 27 19 6z m398 -42 c4 -10 -1 -22
-12 -30 -23 -17 -35 -9 -35 22 0 17 5 24 20 24 11 0 23 -7 27 -16z m57 -9 c3
-9 0 -15 -9 -15 -8 0 -15 7 -15 15 0 8 4 15 9 15 5 0 11 -7 15 -15z m1445 -37
c30 -41 40 -81 22 -92 -15 -10 -91 72 -91 98 0 51 29 48 69 -6z m-1074 -10 c4
-17 3 -28 -3 -28 -12 0 -22 24 -22 53 0 27 16 11 25 -25z m1163 14 c2 -7 -3
-12 -12 -12 -9 0 -16 7 -16 16 0 17 22 14 28 -4z m-1218 -44 c0 -10 9 -18 23
-20 14 -2 23 -11 25 -25 4 -25 45 -38 118 -37 34 1 43 -4 56 -27 l16 -28 -48
3 c-42 2 -50 -1 -59 -22 -6 -12 -11 -31 -11 -41 0 -11 -7 -21 -15 -25 -8 -3
-15 -12 -15 -21 0 -21 37 -19 49 3 9 16 12 15 33 -6 l23 -23 -38 -32 -38 -32
12 -50 c6 -27 11 -63 11 -78 1 -26 3 -27 29 -22 26 6 29 4 29 -19 0 -19 -9
-32 -32 -46 -18 -11 -40 -20 -48 -20 -57 0 -161 81 -129 101 8 4 14 12 15 16
2 20 16 70 26 89 18 39 3 73 -40 90 -1 1 2 13 7 28 14 35 -5 187 -24 202 -9 6
-15 27 -15 48 0 34 1 35 20 24 11 -7 20 -20 20 -30z m-353 26 c-3 -3 -12 -4
-19 -1 -8 3 -5 6 6 6 11 1 17 -2 13 -5z m93 -33 c0 -9 -6 -26 -14 -37 -13 -16
-15 -17 -21 -3 -8 20 12 72 25 64 5 -3 10 -14 10 -24z m394 4 c9 -14 14 -30
11 -35 -10 -16 -34 -11 -45 9 -26 49 4 71 34 26z m216 15 c0 -5 -4 -10 -10
-10 -5 0 -10 5 -10 10 0 6 5 10 10 10 6 0 10 -4 10 -10z m896 -5 c4 -8 3 -23
0 -32 -6 -15 -8 -15 -16 -3 -13 20 -12 50 0 50 6 0 13 -7 16 -15z m-616 -62
c0 -37 -3 -44 -17 -41 -20 4 -28 45 -18 85 10 41 35 9 35 -44z m-696 -27 c-7
-17 -44 -23 -44 -6 0 10 41 31 48 25 1 -1 0 -10 -4 -19z m431 -12 c14 -9 25
-20 25 -25 0 -4 11 -19 25 -33 14 -14 25 -35 25 -47 0 -22 0 -22 15 -3 13 17
14 17 15 2 0 -9 -4 -20 -10 -23 -5 -3 -10 -14 -10 -23 0 -9 -14 -30 -31 -47
-25 -23 -44 -30 -93 -36 -55 -7 -64 -5 -93 17 -33 25 -43 57 -22 70 6 3 15 2
21 -4 6 -6 24 -5 51 3 32 9 46 20 59 46 23 46 23 69 -2 69 -15 0 -20 7 -20 25
0 29 11 31 45 9z m-1159 -31 c-11 -11 -17 4 -9 23 7 18 8 18 11 1 2 -10 1 -21
-2 -24z m404 33 c0 -3 -4 -8 -10 -11 -5 -3 -10 -1 -10 4 0 6 5 11 10 11 6 0
10 -2 10 -4z m1606 -11 c8 -21 -14 -45 -42 -45 -25 0 -54 24 -54 46 0 20 88
20 96 -1z m-2006 -75 c0 -11 -7 -20 -15 -20 -17 0 -18 2 -9 24 9 23 24 20 24
-4z m-135 -20 c-3 -5 -13 -10 -21 -10 -8 0 -12 5 -9 10 3 6 13 10 21 10 8 0
12 -4 9 -10z m485 -35 c18 -9 31 -26 35 -46 5 -20 18 -37 36 -48 19 -10 29
-24 29 -39 0 -15 7 -26 20 -29 11 -3 20 -9 20 -14 0 -4 20 -11 43 -14 54 -8
58 -11 79 -57 12 -26 22 -36 33 -32 18 7 10 24 -11 24 -21 0 -17 26 8 50 29
27 35 26 69 -12 31 -33 27 -48 -15 -48 -11 0 -16 -5 -13 -14 3 -7 0 -46 -7
-87 -9 -53 -17 -75 -32 -83 -10 -6 -23 -17 -27 -23 -4 -7 -15 -13 -23 -13 -8
0 -19 -11 -24 -24 -13 -36 -26 -39 -44 -11 -20 30 -20 35 -1 35 9 0 19 8 22
18 4 9 11 20 16 23 14 10 -1 29 -22 29 -9 0 -36 9 -59 20 -63 31 -72 27 -72
-25 0 -33 -4 -45 -15 -45 -9 0 -15 -9 -15 -25 0 -29 -17 -32 -59 -11 -17 9
-32 11 -42 5 -22 -13 -29 -11 -29 11 0 10 9 27 20 38 30 27 52 86 38 100 -7 7
-19 12 -28 12 -14 0 -16 7 -11 38 6 33 10 37 36 37 34 0 75 23 75 42 0 7 9 13
19 13 30 0 32 27 6 59 -14 16 -25 38 -25 50 0 12 -6 21 -15 21 -9 0 -20 11
-25 24 -5 14 -18 30 -30 36 -11 6 -20 15 -20 20 0 14 27 12 60 -5z m-1008 -45
c-7 -43 -15 -42 -26 3 -6 24 -4 28 11 25 13 -2 17 -11 15 -28z m393 -10 c15
-7 10 -9 -23 -9 -26 -1 -41 3 -37 9 7 12 32 12 60 0z m1246 -43 c-1 -12 -15
-9 -19 4 -3 6 1 10 8 8 6 -3 11 -8 11 -12z m-1455 -34 c-10 -10 -19 5 -10 18
6 11 8 11 12 0 2 -7 1 -15 -2 -18z m594 2 c0 -9 -6 -12 -15 -9 -8 4 -15 10
-15 15 0 5 7 9 15 9 8 0 15 -7 15 -15z m1036 -8 c18 -16 25 -30 21 -40 -8 -20
-53 -23 -64 -4 -12 20 -65 35 -90 26 -13 -5 -25 -4 -28 1 -11 18 6 29 34 24
16 -4 32 -1 35 5 12 19 64 12 92 -12z m-1896 -67 c0 -5 -4 -10 -10 -10 -5 0
-10 5 -10 10 0 6 5 10 10 10 6 0 10 -4 10 -10z m1955 -22 c27 -12 32 -23 14
-33 -11 -7 -49 22 -49 37 0 11 4 10 35 -4z m-1585 -38 c0 -11 -4 -20 -10 -20
-5 0 -10 9 -10 20 0 11 5 20 10 20 6 0 10 -9 10 -20z m580 -16 c0 -16 -41 -39
-88 -49 -24 -5 -33 -3 -38 9 -9 23 5 40 21 26 10 -8 16 -8 22 2 11 18 55 37
71 31 6 -3 12 -11 12 -19z m565 -24 c4 -6 -4 -19 -17 -30 -19 -15 -24 -16 -26
-4 -8 35 26 61 43 34z m298 -31 c-13 -13 -43 -5 -43 10 0 13 33 20 45 9 5 -5
5 -12 -2 -19z m418 1 c5 0 9 -5 9 -11 0 -8 -5 -8 -15 1 -8 7 -14 20 -14 29 1
13 2 13 6 -1 2 -10 9 -18 14 -18z m-1241 -20 c0 -5 -4 -10 -10 -10 -5 0 -10 5
-10 10 0 6 5 10 10 10 6 0 10 -4 10 -10z m-799 -26 c11 -14 10 -18 -6 -30 -10
-8 -27 -14 -37 -14 -10 0 -18 -4 -18 -10 0 -5 -5 -10 -11 -10 -6 0 -9 14 -7
33 2 23 7 31 20 29 9 -1 19 2 23 8 9 14 21 12 36 -6z m572 -19 c-1 -16 3 -35
8 -42 8 -9 7 -14 -4 -19 -21 -8 -37 3 -37 26 0 10 -8 24 -17 29 -17 10 -17 12
2 26 29 23 50 14 48 -20z m727 -6 c0 -10 5 -19 10 -19 14 0 13 -37 -1 -46 -6
-3 -9 -19 -5 -35 6 -31 -4 -38 -23 -15 -9 11 -10 20 -1 36 7 13 8 38 4 67 -5
33 -4 44 5 39 6 -4 11 -16 11 -27z m-500 11 c0 -5 -5 -10 -11 -10 -5 0 -7 5
-4 10 3 6 8 10 11 10 2 0 4 -4 4 -10z m-333 -45 c3 -9 -2 -24 -11 -34 -9 -10
-16 -25 -16 -34 0 -30 -18 -18 -23 16 -7 46 35 90 50 52z m161 -47 c15 1 22
-4 22 -17 0 -15 -7 -19 -36 -18 -42 1 -64 -21 -64 -65 0 -16 -6 -31 -13 -34
-8 -3 -13 -20 -12 -45 1 -33 6 -44 28 -57 29 -18 42 -41 29 -54 -13 -13 -153
-48 -194 -48 -21 0 -38 -4 -38 -10 0 -5 6 -10 14 -10 8 0 27 -5 41 -10 42 -16
15 -40 -46 -40 -41 0 -49 3 -55 23 -4 12 -15 28 -25 35 -46 32 2 69 86 67 38
0 58 5 83 23 38 29 42 52 8 52 -14 0 -27 4 -30 9 -3 5 -14 7 -24 4 -10 -2 -24
3 -31 11 -8 9 -20 16 -27 16 -8 0 -31 9 -51 20 -21 11 -43 20 -50 20 -23 0
-14 20 13 31 20 7 31 6 43 -4 9 -8 27 -17 41 -20 14 -3 51 -12 83 -20 67 -17
80 -10 92 45 6 26 4 35 -14 46 -26 18 -28 35 -2 27 13 -4 26 1 38 14 13 14 25
18 43 14 14 -3 35 -5 48 -5z m-341 -50 c-3 -7 -5 -2 -5 12 0 14 2 19 5 13 2
-7 2 -19 0 -25z m1815 -8 c16 -16 38 -30 48 -30 34 0 63 -67 38 -87 -10 -9
-23 1 -58 45 -44 55 -47 57 -99 60 -46 3 -53 1 -58 -18 -4 -13 -11 -19 -20
-16 -8 3 -19 6 -24 6 -5 0 -9 5 -9 10 0 6 6 10 13 10 7 0 18 5 25 12 14 14 69
35 95 37 10 0 32 -12 49 -29z m-992 -57 c0 -7 -9 -13 -20 -13 -22 0 -26 20 -8
38 13 13 28 -1 28 -25z m54 -24 c-3 -5 -10 -7 -15 -3 -5 3 -7 10 -3 15 3 5 10
7 15 3 5 -3 7 -10 3 -15z m696 9 c0 -7 -4 -19 -9 -27 -8 -12 -12 -12 -25 -2
-24 20 -19 41 9 41 14 0 25 -6 25 -12z m200 -43 c0 -26 -14 -33 -25 -15 -9 14
1 40 15 40 5 0 10 -11 10 -25z m-1661 -76 c-13 -10 -26 -14 -27 -8 -6 16 18
38 35 32 13 -5 11 -9 -8 -24z m-849 11 c0 -5 -16 -10 -35 -10 -19 0 -35 5 -35
10 0 6 16 10 35 10 19 0 35 -4 35 -10z m1570 -26 c0 -16 -16 -19 -25 -4 -8 13
4 32 16 25 5 -4 9 -13 9 -21z m-790 6 c0 -5 -4 -10 -10 -10 -5 0 -10 5 -10 10
0 6 5 10 10 10 6 0 10 -4 10 -10z m1277 -12 c-3 -8 -6 -5 -6 6 -1 11 2 17 5
13 3 -3 4 -12 1 -19z m-1884 -44 c8 -9 -11 -44 -23 -44 -6 0 -10 11 -10 25 0
23 18 34 33 19z m1367 -34 c-19 -12 -30 -12 -30 -1 0 10 31 20 40 14 2 -2 -2
-8 -10 -13z m-1265 -14 c19 -14 19 -15 2 -33 -9 -11 -17 -27 -17 -37 0 -10 -6
-16 -12 -14 -17 6 -28 86 -14 92 18 7 21 7 41 -8z m1209 -9 c20 -32 -38 -61
-74 -37 -13 9 -13 12 3 21 9 5 17 17 17 25 0 21 40 14 54 -9z m-754 -12 c0 -8
-7 -15 -15 -15 -8 0 -15 7 -15 15 0 8 7 15 15 15 8 0 15 -7 15 -15z m-531 -51
c6 -14 9 -29 6 -34 -3 -5 5 -26 18 -48 l25 -38 -34 -22 -33 -21 -20 26 c-12
14 -21 34 -21 45 0 10 -6 21 -14 24 -8 3 -12 12 -10 19 3 7 1 16 -5 20 -17 10
-13 25 7 25 9 0 26 7 36 15 27 20 31 19 45 -11z m557 9 c3 -10 10 -26 15 -36
13 -25 -16 -35 -40 -13 -10 9 -23 16 -29 16 -16 0 -15 23 0 38 18 18 48 15 54
-5z m634 -37 c-14 -14 -24 0 -16 21 6 15 8 15 16 3 6 -9 5 -19 0 -24z m-1443
-32 c3 -9 1 -25 -6 -36 -16 -26 -6 -38 35 -38 19 0 34 -4 34 -10 0 -5 -13 -10
-29 -10 -39 0 -47 -14 -18 -33 33 -22 77 -65 77 -75 0 -6 -7 -13 -16 -16 -11
-4 -34 10 -70 44 -29 27 -60 50 -69 50 -29 0 -36 45 -14 95 16 36 25 45 45 45
14 0 27 -7 31 -16z m1973 -4 c0 -5 -4 -10 -10 -10 -5 0 -10 5 -10 10 0 6 5 10
10 10 6 0 10 -4 10 -10z m157 -6 c-3 -3 -12 -4 -19 -1 -8 3 -5 6 6 6 11 1 17
-2 13 -5z m-2017 -39 c0 -8 -7 -15 -15 -15 -8 0 -15 7 -15 15 0 8 7 15 15 15
8 0 15 -7 15 -15z m355 5 c3 -5 17 -10 31 -10 29 0 29 0 4 -45 -11 -20 -18
-40 -15 -45 8 -14 -13 -50 -29 -50 -7 0 -16 -13 -19 -29 -8 -36 -41 -50 -66
-27 -18 16 -18 18 0 52 10 20 16 41 13 48 -3 7 2 18 10 25 8 7 13 18 10 25 -3
7 2 19 11 26 8 7 15 19 15 26 0 16 26 19 35 4z m85 -6 c0 -8 -5 -12 -10 -9 -6
4 -8 11 -5 16 9 14 15 11 15 -7z m1493 -20 c-4 -10 -9 -12 -15 -6 -12 12 -1
35 12 27 5 -3 6 -13 3 -21z m-119 -30 c25 -9 19 -24 -9 -24 -16 0 -25 6 -25
15 0 16 9 19 34 9z m-1734 -59 c0 -26 -14 -33 -25 -15 -9 14 1 40 15 40 5 0
10 -11 10 -25z m336 -151 c-6 -22 -9 -25 -17 -13 -11 17 -12 63 -2 73 13 12
26 -31 19 -60z m-186 16 c0 -5 -7 -10 -15 -10 -8 0 -15 5 -15 10 0 6 7 10 15
10 8 0 15 -4 15 -10z m94 -9 c4 -5 3 -17 0 -26 -6 -15 -8 -14 -25 1 -11 9 -19
21 -19 26 0 11 37 10 44 -1z m317 -54 c-1 -12 -15 -9 -19 4 -3 6 1 10 8 8 6
-3 11 -8 11 -12z m-371 -26 c0 -5 -7 -12 -16 -15 -22 -9 -24 -8 -24 9 0 8 9
15 20 15 11 0 20 -4 20 -9z m-195 -86 c-7 -43 -18 -55 -46 -48 -33 9 -33 41 0
79 17 19 31 40 32 47 0 7 5 1 10 -13 6 -14 8 -43 4 -65z m185 5 c0 -17 -7 -20
-49 -20 -28 0 -52 4 -56 9 -9 15 26 30 68 31 30 0 37 -4 37 -20z m2174 -25
c18 -28 21 -45 6 -45 -5 0 -10 6 -10 14 0 7 -13 16 -30 20 -44 8 -38 26 11 35
4 0 14 -10 23 -24z m-1918 -26 c10 -17 34 -113 29 -117 -10 -11 -36 23 -31 40
3 13 -4 25 -24 37 -28 16 -28 18 -13 34 20 20 29 21 39 6z m-676 -3 c0 -3 -4
-8 -10 -11 -5 -3 -10 -1 -10 4 0 6 5 11 10 11 6 0 10 -2 10 -4z m110 -46 c11
-7 12 -12 3 -21 -12 -12 -53 4 -53 21 0 13 30 13 50 0z m2524 -42 c-9 -14 -23
2 -17 18 4 12 8 13 14 3 4 -7 5 -17 3 -21z m-2514 -43 c0 -14 -4 -25 -10 -25
-11 0 -14 33 -3 43 11 11 13 8 13 -18z m2462 1 c4 -6 8 -21 8 -33 0 -13 12
-32 30 -45 29 -21 43 -56 18 -44 -7 3 -20 9 -29 12 -9 3 -25 22 -35 42 -11 20
-28 44 -38 53 -24 20 -12 42 17 33 12 -4 25 -12 29 -18z m-2136 -188 c3 -5 4
-12 1 -15 -7 -6 -77 18 -77 27 0 10 70 -1 76 -12z m2190 7 c8 -21 -6 -41 -17
-24 -12 19 -11 39 1 39 6 0 13 -7 16 -15z m-2317 -4 c8 -5 11 -16 8 -25 -5
-13 -12 -13 -37 -5 -17 6 -42 8 -55 5 -19 -5 -25 -2 -25 10 0 12 6 15 23 11
12 -3 31 -1 42 3 26 11 28 11 44 1z m381 -11 c0 -15 -7 -20 -25 -20 -41 0 -30
37 13 39 6 1 12 -8 12 -19z m1979 -18 c5 -10 6 -23 2 -30 -4 -7 -11 0 -18 18
-12 32 0 41 16 12z m-119 -31 c0 -17 -5 -33 -11 -36 -14 -9 -18 -4 -25 33 -6
28 -4 32 15 32 17 0 21 -6 21 -29z m50 -26 c-9 -62 -30 -83 -30 -31 0 38 14
76 29 76 4 0 5 -20 1 -45z m-181 -48 c0 -29 -4 -61 -9 -72 -7 -18 -8 -18 -15
8 -4 17 -3 33 5 42 10 11 9 18 -4 30 -19 19 -20 27 -4 43 19 19 28 3 27 -51z
m-529 13 c0 -11 -4 -20 -10 -20 -5 0 -10 9 -10 20 0 11 5 20 10 20 6 0 10 -9
10 -20z m159 -13 c39 -1 71 -5 71 -9 0 -5 -9 -8 -20 -8 -15 0 -20 -7 -20 -26
0 -24 3 -26 31 -20 17 3 37 6 43 6 6 0 17 13 24 29 8 19 22 31 41 34 42 9 101
-3 101 -20 0 -8 -4 -12 -10 -8 -5 3 -20 3 -34 -1 -22 -5 -27 -15 -38 -65 -13
-63 -28 -79 -28 -30 0 31 -13 47 -30 36 -7 -4 -7 -13 0 -24 6 -12 5 -22 -2
-29 -16 -16 -55 -15 -65 1 -4 6 -16 18 -26 26 -16 13 -20 13 -27 1 -6 -10 -3
-21 7 -32 8 -9 13 -24 10 -33 -9 -21 -39 -19 -35 3 2 13 -8 19 -49 26 -44 8
-52 13 -56 35 -3 15 1 33 9 42 16 18 19 49 4 49 -5 0 -10 7 -10 16 0 11 6 13
19 9 10 -3 51 -7 90 -8z m-1449 -7 c0 -5 -4 -10 -9 -10 -6 0 -13 5 -16 10 -3
6 1 10 9 10 9 0 16 -4 16 -10z m-24 -127 c18 -52 30 -72 47 -77 23 -6 88 4
104 16 22 18 24 -13 3 -56 -14 -29 -32 -50 -55 -60 -18 -9 -45 -30 -59 -46
-13 -17 -30 -30 -36 -30 -6 0 -15 -11 -20 -25 -5 -14 -14 -25 -19 -25 -5 0
-13 -9 -16 -20 -10 -31 -38 -24 -59 14 -24 45 -25 159 -2 201 9 17 16 35 16
42 0 18 60 83 76 83 8 0 17 -8 20 -17z m2038 -62 c57 -14 88 -50 96 -110 3
-28 3 -51 -2 -51 -4 0 -8 5 -8 10 0 20 -21 9 -30 -15 -14 -37 -50 -33 -79 10
-13 19 -31 36 -40 37 -9 0 -21 2 -28 2 -6 1 -21 14 -34 29 -20 26 -21 32 -10
68 12 39 12 39 54 34 23 -2 60 -9 81 -14z m-2344 -125 c51 -15 69 -46 26 -46
-13 0 -32 7 -40 16 -9 8 -20 13 -25 9 -12 -7 -24 12 -16 25 3 6 7 10 8 10 1 0
22 -6 47 -14z m474 -91 c12 -9 42 -15 73 -15 48 0 54 -2 68 -30 11 -21 25 -31
50 -36 19 -3 35 -11 35 -16 0 -5 24 -9 53 -8 71 2 79 1 73 -8 -6 -10 -114 -7
-124 2 -3 3 -18 6 -32 6 -15 0 -33 7 -40 15 -7 9 -23 15 -34 13 -19 -3 -21
-10 -21 -77 0 -53 -4 -76 -13 -79 -7 -2 -16 5 -19 16 -2 11 -16 25 -30 31 -31
14 -27 43 7 51 19 5 25 12 25 34 0 24 -6 30 -44 43 -33 11 -46 12 -51 3 -6 -9
-9 -9 -15 -1 -4 7 -2 18 4 25 6 7 9 21 5 30 -8 20 5 20 30 1z m1561 -26 c8
-23 1 -34 -14 -24 -13 8 -15 45 -2 45 5 0 13 -9 16 -21z m175 11 c0 -5 -4 -10
-9 -10 -6 0 -13 5 -16 10 -3 6 1 10 9 10 9 0 16 -4 16 -10z m-780 -31 c0 -24
-23 -21 -28 4 -2 10 3 17 12 17 10 0 16 -9 16 -21z m44 15 c19 -7 22 -34 4
-34 -22 0 -41 17 -34 29 8 13 9 13 30 5z m834 -36 c23 -13 42 -26 42 -30 0
-19 -50 -5 -80 22 -40 36 -22 39 38 8z m-2053 -18 c3 -5 1 -10 -4 -10 -6 0
-11 5 -11 10 0 6 2 10 4 10 3 0 8 -4 11 -10z m237 -8 c-7 -2 -12 -9 -12 -15 0
-7 -11 -25 -25 -40 -26 -27 -77 -37 -90 -17 -3 6 1 10 9 10 8 0 36 18 61 40
26 22 52 37 58 33 8 -5 8 -8 -1 -11z m-142 -52 c0 -5 -4 -10 -10 -10 -5 0 -10
5 -10 10 0 6 5 10 10 10 6 0 10 -4 10 -10z m1280 -30 c-20 -13 -60 -13 -60 0
0 6 17 10 38 10 27 0 33 -3 22 -10z m-98 -25 c0 -5 -5 -11 -11 -13 -6 -2 -11
4 -11 13 0 9 5 15 11 13 6 -2 11 -8 11 -13z m-1078 -10 c3 -8 11 -15 18 -15
23 0 40 -38 28 -61 -12 -21 -30 -17 -30 7 0 8 -5 14 -11 14 -6 0 -9 -9 -6 -20
6 -24 -4 -32 -23 -20 -12 8 -13 13 -3 29 7 12 10 33 7 51 -7 31 9 43 20 15z
m1686 -54 c0 -24 -14 -41 -27 -33 -8 5 -10 21 -6 46 6 36 7 37 20 21 7 -11 13
-26 13 -34z m-461 25 c10 -12 8 -17 -7 -25 -11 -6 -22 -7 -26 -4 -3 3 -6 1 -6
-6 0 -21 -35 6 -37 28 -1 17 4 21 31 21 19 0 39 -6 45 -14z m-1105 -40 c8 -43
-1 -66 -25 -66 -16 0 -18 3 -9 19 5 11 10 33 10 50 0 41 16 39 24 -3z m1236 9
c0 -7 -9 -17 -21 -20 -16 -5 -19 -12 -15 -31 9 -36 -18 -92 -49 -100 -14 -3
-29 -4 -32 0 -8 8 32 90 52 106 8 7 15 21 15 31 0 19 29 41 42 33 5 -3 8 -11
8 -19z m-1430 5 c0 -5 -2 -10 -4 -10 -3 0 -8 5 -11 10 -3 6 -1 10 4 10 6 0 11
-4 11 -10z m1655 -37 c-4 -21 -13 -50 -21 -65 -8 -15 -14 -33 -14 -41 0 -8 -7
-17 -15 -21 -8 -3 -15 -11 -15 -18 0 -8 -10 -22 -22 -33 -23 -20 -107 -65
-120 -65 -18 0 -5 36 18 55 113 90 143 122 155 168 13 50 17 57 31 57 6 0 8
-13 3 -37z m545 -18 c0 -8 -4 -15 -9 -15 -13 0 -22 16 -14 24 11 11 23 6 23
-9z m-412 -13 c2 -7 -3 -12 -12 -12 -9 0 -16 7 -16 16 0 17 22 14 28 -4z
m-1735 -64 c7 -21 -4 -38 -23 -38 -23 0 -34 16 -26 35 7 18 43 20 49 3z m2120
-48 c-3 -11 -7 -20 -9 -20 -2 0 -4 9 -4 20 0 11 4 20 9 20 5 0 7 -9 4 -20z
m-2610 -20 c3 -11 1 -22 -3 -25 -12 -7 -33 32 -25 45 9 14 21 5 28 -20z m54
-6 c-9 -9 -28 6 -21 18 4 6 10 6 17 -1 6 -6 8 -13 4 -17z m2633 12 c0 -8 -5
-18 -11 -22 -14 -8 -33 11 -25 25 10 16 36 13 36 -3z m77 -76 l40 -39 -29 -7
c-16 -3 -30 -4 -31 -2 -1 1 -10 13 -21 25 -11 14 -15 29 -11 42 3 12 8 21 9
21 2 0 21 -18 43 -40z m-2787 -5 c0 -14 -4 -25 -10 -25 -5 0 -10 11 -10 25 0
14 5 25 10 25 6 0 10 -11 10 -25z m805 4 c4 -5 0 -18 -9 -28 -22 -24 -20 -58
4 -88 15 -19 17 -30 9 -44 -13 -26 -29 -15 -29 21 0 16 -4 32 -10 35 -14 9
-12 89 2 103 15 15 25 15 33 1z m-145 -34 c0 -28 -12 -38 -34 -29 -12 4 -15
13 -10 28 13 42 44 43 44 1z m461 -58 c-8 -8 -11 -7 -11 4 0 20 13 34 18 19 3
-7 -1 -17 -7 -23z m1734 11 c18 -8 25 -19 25 -40 0 -34 -12 -36 -25 -6 -6 12
-21 25 -34 28 -14 3 -26 11 -29 18 -5 15 29 16 63 0z m-3067 -84 c4 -25 -33
-44 -83 -44 -40 0 -46 16 -11 29 13 5 26 17 30 26 9 24 60 16 64 -11z m3113
-7 c-8 -8 -11 -7 -11 4 0 20 13 34 18 19 3 -7 -1 -17 -7 -23z m-1108 -7 c7
-26 -3 -61 -14 -54 -12 7 -12 74 0 74 5 0 11 -9 14 -20z m1187 -96 c0 -8 -4
-12 -10 -9 -5 3 -10 10 -10 16 0 5 5 9 10 9 6 0 10 -7 10 -16z m-3812 -5 c-2
-6 -8 -10 -13 -10 -5 0 -11 4 -13 10 -2 6 4 11 13 11 9 0 15 -5 13 -11z m532
-116 c0 -7 -7 -13 -15 -13 -8 0 -15 4 -15 10 0 5 -14 22 -31 37 -36 33 -52 59
-44 73 7 11 105 -89 105 -107z m1900 93 c0 -31 -14 -40 -30 -21 -15 18 -6 45
15 45 9 0 15 -9 15 -24z m1464 -35 c8 -14 17 -36 20 -48 12 -39 -21 -27 -40
13 -10 20 -26 39 -36 42 -23 6 -23 11 -1 28 21 15 37 5 57 -35z m-1313 -34
c19 -13 35 -33 37 -46 3 -21 1 -23 -22 -17 -19 5 -26 2 -26 -8 0 -8 5 -18 10
-21 6 -3 10 -2 10 3 0 5 14 12 31 16 28 5 30 8 24 37 -6 27 -4 30 12 27 13 -3
17 -12 16 -30 -2 -31 -41 -88 -59 -88 -7 0 -14 -11 -16 -25 -4 -32 -22 -34
-26 -3 -2 12 -15 36 -29 52 l-25 30 22 18 c26 21 26 20 -18 42 -24 12 -37 14
-51 6 -27 -14 -41 -13 -41 4 0 31 106 33 151 3z m-393 -40 c4 -18 -52 -52 -68
-42 -6 3 -10 1 -10 -5 0 -6 -8 -14 -17 -17 -10 -4 -35 -17 -55 -30 -40 -24
-58 -29 -58 -14 0 5 11 11 23 15 13 3 41 19 62 36 21 17 49 33 61 36 13 3 26
15 29 26 8 22 28 19 33 -5z m192 5 c0 -8 -38 -56 -82 -103 -15 -16 -36 -29
-48 -29 -16 0 -20 -7 -20 -29 0 -20 -12 -42 -35 -68 -19 -20 -36 -35 -39 -32
-3 3 13 44 37 91 29 60 49 88 64 92 12 3 32 20 44 37 25 35 79 63 79 41z
m-2375 -22 c-3 -5 -10 -10 -16 -10 -5 0 -9 5 -9 10 0 6 7 10 16 10 8 0 12 -4
9 -10z m3165 -20 c0 -5 -4 -10 -9 -10 -6 0 -13 5 -16 10 -3 6 1 10 9 10 9 0
16 -4 16 -10z m88 -66 c24 -17 30 -44 8 -44 -12 0 -46 40 -46 55 0 9 15 5 38
-11z m-3027 -14 c25 -14 25 -50 0 -50 -13 0 -20 9 -23 30 -5 34 -4 34 23 20z
m478 -4 c10 -12 8 -17 -8 -25 -27 -15 -31 -14 -31 7 0 33 20 42 39 18z m891
-6 c0 -5 -4 -10 -10 -10 -5 0 -10 5 -10 10 0 6 5 10 10 10 6 0 10 -4 10 -10z
m349 -11 c-8 -5 -21 -9 -29 -9 -12 1 -11 4 4 15 10 8 23 12 29 8 5 -3 3 -9 -4
-14z m-49 -14 c0 -8 -124 -65 -142 -65 -9 0 -21 -7 -26 -16 -5 -9 -17 -14 -28
-12 -14 3 -1 13 45 36 34 18 72 32 82 32 11 0 22 7 25 15 5 13 44 22 44 10z
m-1690 -29 c0 -3 -4 -8 -10 -11 -5 -3 -10 -1 -10 4 0 6 5 11 10 11 6 0 10 -2
10 -4z m2035 -101 c-5 -42 -13 -69 -21 -72 -8 -3 -14 -13 -14 -23 0 -10 -8
-20 -18 -22 -26 -7 -37 -89 -17 -127 23 -46 30 -125 11 -143 -8 -9 -19 -34
-24 -56 -5 -22 -24 -60 -41 -86 -27 -39 -36 -45 -57 -40 -16 4 -24 2 -24 -6 0
-14 -135 -150 -149 -150 -4 0 -11 21 -14 47 -5 43 -17 88 -49 191 -9 31 -7 36
19 61 61 58 72 61 132 34 61 -28 100 -67 101 -100 0 -32 18 -29 31 5 5 15 16
32 24 38 25 19 35 129 19 209 -7 39 -13 91 -14 118 0 40 3 47 20 47 11 0 20 5
20 10 0 6 -6 10 -14 10 -8 0 -18 5 -21 11 -9 14 24 50 44 47 9 -2 24 12 35 34
11 20 22 35 24 33 2 -2 1 -33 -3 -70z m1852 18 c-3 -10 -5 -4 -5 12 0 17 2 24
5 18 2 -7 2 -21 0 -30z m-4077 -8 c0 -8 -7 -15 -15 -15 -26 0 -18 20 13 29 1
1 2 -6 2 -14z m1407 -2 c6 -16 -36 -28 -50 -14 -9 9 -8 14 3 21 19 12 42 9 47
-7z m213 -3 c0 -5 -9 -10 -21 -10 -11 0 -17 5 -14 10 3 6 13 10 21 10 8 0 14
-4 14 -10z m1025 -18 c0 -18 -20 -15 -23 4 -3 10 1 15 10 12 7 -3 13 -10 13
-16z m-2258 -8 c-3 -3 -12 -4 -19 -1 -8 3 -5 6 6 6 11 1 17 -2 13 -5z m1163 2
c0 -7 -67 -46 -79 -46 -23 0 -10 30 17 36 15 3 32 7 37 9 15 5 25 5 25 1z
m-716 -42 c8 -21 -1 -34 -25 -34 -12 0 -19 7 -19 18 0 34 33 45 44 16z m-857
-6 c28 2 41 -18 19 -30 -9 -5 -16 -18 -16 -28 0 -26 -17 -26 -25 0 -3 11 -12
20 -19 20 -19 0 -39 27 -31 40 4 6 16 8 28 4 12 -4 32 -7 44 -6z m253 -36 c0
-23 9 -51 25 -74 14 -20 25 -42 25 -47 0 -6 4 -11 8 -11 4 0 8 -9 8 -20 0 -11
-4 -20 -8 -20 -4 0 -8 8 -8 19 0 10 -21 35 -46 56 -33 27 -43 42 -38 54 4 9 8
27 9 41 3 37 4 40 15 40 6 0 10 -17 10 -38z m1178 18 c-13 -20 -28 -27 -28
-12 0 10 22 32 32 32 5 0 3 -9 -4 -20z m901 -31 c-12 -21 -14 -22 -17 -6 -6
28 6 53 19 40 8 -8 7 -18 -2 -34z m-839 -19 c0 -11 -4 -20 -8 -20 -5 0 -17 9
-27 20 -18 20 -17 20 8 20 20 0 27 -5 27 -20z m-67 -27 c9 -9 -13 -34 -24 -27
-14 8 -11 34 4 34 8 0 17 -3 20 -7z m-1273 -13 c0 -5 -4 -10 -10 -10 -5 0 -10
5 -10 10 0 6 5 10 10 10 6 0 10 -4 10 -10z m-520 -26 c0 -16 -16 -19 -25 -4
-8 13 4 32 16 25 5 -4 9 -13 9 -21z m3975 -14 c3 -5 1 -10 -4 -10 -6 0 -11 5
-11 10 0 6 2 10 4 10 3 0 8 -4 11 -10z m-2715 -25 c0 -3 -9 -15 -19 -26 -22
-23 -41 -8 -21 16 12 14 40 21 40 10z m-824 -36 c7 -11 -12 -29 -31 -29 -19 0
-38 18 -31 29 4 6 18 11 31 11 13 0 27 -5 31 -11z m-219 -105 c-3 -3 -12 -4
-19 -1 -8 3 -5 6 6 6 11 1 17 -2 13 -5z m1197 0 c25 -10 19 -38 -12 -52 -23
-10 -29 -10 -38 3 -6 8 -16 15 -22 15 -18 0 -26 22 -11 31 16 10 60 12 83 3z
m-246 -84 c3 -9 -3 -11 -22 -8 -17 4 -29 0 -35 -10 -6 -11 -10 -12 -16 -2 -4
7 -3 15 2 19 5 3 13 14 16 25 7 16 9 17 29 4 12 -8 24 -21 26 -28z m235 -25
c-19 -25 -34 -28 -41 -7 -2 7 6 12 17 12 12 0 21 5 21 10 0 6 5 10 10 10 6 0
3 -11 -7 -25z m665 -12 c14 -22 20 -43 16 -55 -4 -12 -1 -24 7 -28 7 -5 18
-30 25 -57 26 -96 12 -123 -26 -51 -12 23 -37 58 -56 78 -30 30 -37 33 -54 22
-23 -14 -24 -12 -8 25 7 15 12 41 13 57 0 28 16 40 55 45 3 0 15 -16 28 -36z
m-861 11 c-3 -3 -12 -4 -19 -1 -8 3 -5 6 6 6 11 1 17 -2 13 -5z m2168 -86 c21
-56 18 -279 -4 -286 -10 -3 -12 2 -8 21 6 23 -12 54 -25 41 -3 -3 -5 32 -4 78
1 46 -1 96 -5 111 -8 30 4 77 20 77 5 0 17 -19 26 -42z m1244 -47 c2 -31 -18
6 -23 44 l-6 40 14 -35 c8 -19 15 -42 15 -49z m-3529 -6 c0 -21 -19 -28 -36
-15 -10 9 -11 16 -3 26 12 15 39 8 39 -11z m-72 4 c-2 -6 -8 -10 -13 -10 -5 0
-11 4 -13 10 -2 6 4 11 13 11 9 0 15 -5 13 -11z m122 3 c0 -13 -12 -22 -22
-16 -10 6 -1 24 13 24 5 0 9 -4 9 -8z m470 -35 c0 -31 -62 -64 -80 -42 -8 10
-5 18 16 34 30 24 64 28 64 8z m-483 -69 c-3 -8 -6 -5 -6 6 -1 11 2 17 5 13 3
-3 4 -12 1 -19z m723 12 c0 -5 -7 -10 -16 -10 -8 0 -12 5 -9 10 3 6 10 10 16
10 5 0 9 -4 9 -10z m2779 -37 c-15 -18 -34 -1 -25 22 5 14 9 15 21 5 12 -10
13 -16 4 -27z m-3556 12 c-1 -5 -9 -14 -19 -20 -10 -5 -24 -16 -32 -22 -19
-18 -34 -16 -30 5 2 9 9 16 15 15 7 -2 15 7 18 18 5 14 14 19 28 17 12 -2 21
-7 20 -13z m97 -34 c0 -5 27 -12 60 -16 81 -9 81 -31 1 -40 -33 -4 -74 -4 -90
0 -27 6 -31 4 -31 -14 0 -18 6 -21 48 -22 26 -1 53 -1 60 0 15 2 16 -15 0 -25
-18 -11 -150 -6 -162 6 -8 8 -4 12 13 17 22 6 23 7 7 19 -16 11 -16 13 6 19
34 11 79 45 73 56 -4 5 -1 9 4 9 6 0 11 -4 11 -9z m689 -66 c-9 -9 -19 -11
-29 -5 -12 7 -10 11 10 18 31 12 39 6 19 -13z m-85 -11 c25 -10 19 -34 -8 -34
-27 0 -41 14 -31 30 7 12 17 12 39 4z m2086 -50 c0 -16 -16 -19 -25 -4 -8 13
4 32 16 25 5 -4 9 -13 9 -21z m-2142 -1 c2 -8 -6 -13 -22 -13 -26 0 -40 12
-29 24 11 11 46 2 51 -11z"/>
<path d="M4285 6390 c3 -5 12 -10 20 -10 8 0 17 5 20 10 4 6 -5 10 -20 10 -15
0 -24 -4 -20 -10z"/>
<path d="M4710 4596 c0 -25 5 -48 10 -51 6 -4 10 11 10 39 0 25 -4 48 -10 51
-6 4 -10 -11 -10 -39z"/>
<path d="M4710 4410 c0 -5 5 -10 11 -10 5 0 7 5 4 10 -3 6 -8 10 -11 10 -2 0
-4 -4 -4 -10z"/>
<path d="M5012 4560 c-16 -26 -6 -46 14 -29 15 12 20 49 6 49 -4 0 -13 -9 -20
-20z"/>
<path d="M4280 4300 c0 -11 40 -34 47 -26 3 3 3 12 0 21 -7 16 -47 21 -47 5z"/>
<path d="M4360 4275 c-27 -20 -30 -25 -14 -25 34 0 64 12 64 26 0 24 -17 24
-50 -1z"/>
<path d="M4206 4251 c-8 -12 3 -41 15 -41 12 0 12 37 0 45 -5 3 -12 1 -15 -4z"/>
<path d="M4415 4217 c-16 -5 -36 -11 -42 -13 -7 -2 -13 -8 -13 -14 0 -6 26 -9
65 -7 49 1 65 5 63 16 -4 20 -39 29 -73 18z"/>
<path d="M4210 4116 c0 -8 5 -18 10 -21 6 -3 10 3 10 14 0 12 -4 21 -10 21 -5
0 -10 -6 -10 -14z"/>
<path d="M4732 2484 c-1 -13 3 -24 8 -24 12 0 14 37 2 44 -4 2 -9 -6 -10 -20z"/>
<path d="M3281 2258 c1 -18 17 -55 18 -43 1 6 4 20 7 33 5 16 2 22 -10 22 -9
0 -16 -6 -15 -12z"/>
<path d="M3580 6549 c0 -18 2 -19 15 -9 8 7 15 16 15 21 0 5 -7 9 -15 9 -9 0
-15 -9 -15 -21z"/>
<path d="M3715 6560 c-3 -5 -15 -10 -25 -10 -19 0 -36 -17 -27 -27 3 -3 11 -1
18 3 23 14 71 15 66 2 -2 -8 -17 -12 -34 -10 -39 4 -63 -22 -34 -37 11 -6 27
-11 36 -11 8 0 18 -7 21 -15 9 -21 20 -10 28 26 5 25 10 30 23 24 40 -16 53
-17 59 -1 3 8 -1 23 -10 31 -9 9 -16 21 -16 26 0 12 -97 12 -105 -1z"/>
<path d="M4340 6560 c0 -5 4 -10 9 -10 5 0 12 -13 16 -30 9 -40 20 -45 39 -15
9 14 26 25 39 26 l22 0 -23 9 c-12 5 -29 7 -37 4 -8 -4 -17 1 -21 10 -7 17
-44 22 -44 6z"/>
<path d="M5625 6560 c3 -5 8 -10 11 -10 2 0 4 5 4 10 0 6 -5 10 -11 10 -5 0
-7 -4 -4 -10z"/>
<path d="M5795 6560 c3 -5 15 -10 26 -10 10 0 19 5 19 10 0 6 -12 10 -26 10
-14 0 -23 -4 -19 -10z"/>
<path d="M5875 6560 c3 -5 13 -10 21 -10 8 0 14 5 14 10 0 6 -9 10 -21 10 -11
0 -17 -4 -14 -10z"/>
<path d="M6490 6546 c0 -17 5 -26 16 -26 10 0 14 7 12 22 -5 32 -28 35 -28 4z"/>
<path d="M3880 6540 c0 -5 5 -10 11 -10 5 0 7 5 4 10 -3 6 -8 10 -11 10 -2 0
-4 -4 -4 -10z"/>
<path d="M4660 6540 c0 -6 7 -10 15 -10 8 0 15 2 15 4 0 2 -7 6 -15 10 -8 3
-15 1 -15 -4z"/>
<path d="M5810 6516 c0 -14 4 -27 9 -31 5 -3 9 8 9 25 -1 36 -18 41 -18 6z"/>
<path d="M2942 6509 c2 -6 8 -10 13 -10 5 0 11 4 13 10 2 6 -4 11 -13 11 -9 0
-15 -5 -13 -11z"/>
<path d="M4626 6511 c-4 -6 -20 -11 -37 -11 -16 0 -29 -4 -29 -10 0 -5 11 -10
24 -10 13 0 31 -3 40 -6 10 -4 18 0 22 11 8 20 -10 43 -20 26z"/>
<path d="M5747 6472 c-22 -50 -21 -55 3 -42 11 6 26 8 32 4 8 -5 9 -2 5 10 -4
10 -7 29 -7 42 0 35 -14 29 -33 -14z"/>
<path d="M5953 6476 c4 -10 7 -22 7 -27 0 -5 5 -9 11 -9 15 0 7 43 -10 48 -10
3 -12 0 -8 -12z"/>
<path d="M3860 6470 c0 -5 19 -10 43 -10 31 0 38 3 27 10 -20 13 -70 13 -70 0z"/>
<path d="M4465 6470 c-3 -5 1 -10 9 -10 8 0 18 5 21 10 3 6 -1 10 -9 10 -8 0
-18 -4 -21 -10z"/>
<path d="M4822 6464 c2 -11 11 -20 22 -22 13 -3 17 1 14 14 -2 11 -11 20 -22
22 -13 3 -17 -1 -14 -14z"/>
<path d="M5686 6465 c25 -19 34 -19 34 0 0 10 -10 15 -27 15 -26 0 -26 -1 -7
-15z"/>
<path d="M5880 6461 c-13 -26 -13 -31 5 -31 9 0 15 9 15 25 0 30 -6 32 -20 6z"/>
<path d="M4540 6450 c0 -5 5 -10 10 -10 6 0 10 5 10 10 0 6 -4 10 -10 10 -5 0
-10 -4 -10 -10z"/>
<path d="M5830 6435 c0 -8 5 -15 10 -15 6 0 10 7 10 15 0 8 -4 15 -10 15 -5 0
-10 -7 -10 -15z"/>
<path d="M4475 6430 c-3 -5 1 -10 9 -10 9 0 16 5 16 10 0 6 -4 10 -9 10 -6 0
-13 -4 -16 -10z"/>
<path d="M4585 6420 c3 -5 10 -10 16 -10 5 0 9 5 9 10 0 6 -7 10 -16 10 -8 0
-12 -4 -9 -10z"/>
<path d="M4785 6409 c-10 -15 3 -25 16 -12 7 7 7 13 1 17 -6 3 -14 1 -17 -5z"/>
<path d="M4526 6402 c-2 -4 2 -16 10 -27 13 -17 16 -18 24 -5 5 9 5 19 -2 27
-12 15 -25 17 -32 5z"/>
<path d="M4580 6384 c0 -9 40 -23 44 -15 3 5 -5 11 -19 13 -14 3 -25 4 -25 2z"/>
<path d="M3228 6359 c-31 -18 -22 -39 17 -39 24 0 37 -6 45 -20 14 -26 50 -27
50 -2 0 19 -17 37 -57 60 -27 14 -33 15 -55 1z"/>
<path d="M4690 6350 c19 -19 40 -26 40 -14 0 10 -33 33 -47 34 -8 0 -5 -8 7
-20z"/>
<path d="M3418 6280 c40 -24 38 -24 45 0 5 18 0 20 -36 20 l-42 0 33 -20z"/>
<path d="M4520 6289 c0 -5 5 -7 10 -4 6 3 10 8 10 11 0 2 -4 4 -10 4 -5 0 -10
-5 -10 -11z"/>
<path d="M3508 6203 c7 -3 16 -2 19 1 4 3 -2 6 -13 5 -11 0 -14 -3 -6 -6z"/>
<path d="M3000 6088 c0 -15 7 -18 45 -14 75 6 71 21 -7 28 -31 3 -38 1 -38
-14z"/>
<path d="M2800 6090 c-23 -14 2 -32 34 -24 29 7 45 24 22 24 -8 0 -20 2 -28 5
-7 3 -20 1 -28 -5z"/>
<path d="M3130 5994 c0 -8 5 -12 10 -9 6 3 10 10 10 16 0 5 -4 9 -10 9 -5 0
-10 -7 -10 -16z"/>
<path d="M2996 5991 c-4 -7 -5 -15 -2 -18 9 -9 19 4 14 18 -4 11 -6 11 -12 0z"/>
<path d="M2938 5959 c-4 -42 -39 -67 -61 -44 -12 11 -22 13 -41 5 -14 -5 -26
-13 -26 -18 0 -16 78 -42 131 -45 49 -2 54 0 57 21 2 12 -1 22 -6 22 -15 0
-31 45 -21 61 13 21 11 29 -10 29 -15 0 -21 -8 -23 -31z"/>
<path d="M2742 5940 c0 -14 2 -19 5 -12 2 6 2 18 0 25 -3 6 -5 1 -5 -13z"/>
<path d="M3140 5883 c0 -10 5 -36 10 -58 8 -33 6 -42 -7 -52 -9 -7 -14 -13
-11 -13 4 0 13 -3 22 -6 12 -5 16 0 16 18 0 13 4 28 10 34 6 6 4 23 -4 49 -15
42 -36 59 -36 28z"/>
<path d="M2877 5793 c-12 -12 -7 -22 8 -17 8 4 15 10 15 15 0 11 -14 12 -23 2z"/>
<path d="M3400 5720 c0 -5 4 -10 9 -10 6 0 13 5 16 10 3 6 -1 10 -9 10 -9 0
-16 -4 -16 -10z"/>
<path d="M3014 5667 c-6 -17 2 -37 15 -37 9 0 8 37 -2 46 -4 4 -9 0 -13 -9z"/>
<path d="M3160 5651 c0 -11 4 -22 9 -25 12 -8 34 21 26 34 -11 17 -35 11 -35
-9z"/>
<path d="M3075 5640 c-7 -12 2 -30 16 -30 5 0 9 9 9 20 0 21 -15 27 -25 10z"/>
<path d="M2875 5618 c4 -13 7 -38 7 -56 -1 -33 0 -33 19 -16 24 22 24 45 -1
72 -26 28 -34 28 -25 0z"/>
<path d="M2937 5633 c-13 -12 -7 -23 13 -23 11 0 20 7 20 15 0 15 -21 21 -33
8z"/>
<path d="M3130 5601 c0 -5 -10 -11 -22 -13 -17 -2 -24 -11 -26 -31 -3 -26 -1
-27 16 -18 16 9 23 6 35 -12 15 -21 16 -20 16 25 1 26 -3 50 -9 53 -5 3 -10 2
-10 -4z"/>
<path d="M3210 5569 c0 -5 5 -7 10 -4 6 3 10 8 10 11 0 2 -4 4 -10 4 -5 0 -10
-5 -10 -11z"/>
<path d="M2992 5558 c-7 -7 -12 -16 -12 -20 0 -15 15 -8 28 12 13 22 3 27 -16
8z"/>
<path d="M2930 5490 c0 -5 5 -10 10 -10 6 0 10 5 10 10 0 6 -4 10 -10 10 -5 0
-10 -4 -10 -10z"/>
<path d="M2860 5450 c0 -5 5 -10 11 -10 5 0 7 5 4 10 -3 6 -8 10 -11 10 -2 0
-4 -4 -4 -10z"/>
<path d="M2830 5399 c0 -5 5 -7 10 -4 6 3 10 8 10 11 0 2 -4 4 -10 4 -5 0 -10
-5 -10 -11z"/>
<path d="M2995 5400 c-4 -6 5 -10 20 -10 15 0 24 4 20 10 -3 6 -12 10 -20 10
-8 0 -17 -4 -20 -10z"/>
<path d="M3130 5394 c-7 -8 -23 -14 -36 -14 -17 0 -24 -6 -24 -19 0 -16 6 -19
35 -18 27 2 39 9 49 29 12 22 12 27 1 32 -8 3 -19 -2 -25 -10z"/>
<path d="M3167 5348 c-18 -56 -17 -102 2 -121 6 -6 11 -20 11 -32 0 -24 18
-45 37 -45 8 0 13 7 11 17 -2 10 7 19 25 24 22 6 27 4 27 -11 0 -21 45 -60 69
-60 10 0 26 -8 37 -19 11 -10 29 -21 40 -25 11 -3 33 -18 50 -33 36 -33 121
-65 152 -56 18 4 22 1 22 -20 0 -14 5 -29 10 -32 10 -6 15 9 10 30 -1 6 -4 28
-6 49 -2 21 -6 41 -8 43 -2 3 -18 -3 -34 -11 -30 -15 -62 -13 -62 4 0 5 -10
10 -21 12 -14 2 -25 15 -33 38 -10 32 -14 35 -44 32 -34 -3 -68 20 -57 38 3 5
-1 10 -9 10 -9 0 -16 11 -18 27 -4 35 -37 45 -45 14 -4 -17 -10 -20 -27 -15
-11 4 -27 15 -34 25 -7 10 -18 24 -25 31 -6 7 -12 18 -13 23 -2 30 -18 73 -33
93 -17 23 -17 23 -34 -30z"/>
<path d="M2940 5360 c0 -5 5 -10 10 -10 6 0 10 5 10 10 0 6 -4 10 -10 10 -5 0
-10 -4 -10 -10z"/>
<path d="M2965 5309 c-4 -6 -5 -11 -4 -12 2 -1 15 -8 27 -15 30 -17 37 -10 20
17 -14 23 -33 27 -43 10z"/>
<path d="M2772 5278 c6 -18 28 -21 28 -4 0 9 -7 16 -16 16 -9 0 -14 -5 -12
-12z"/>
<path d="M3030 5260 c-14 -35 -35 -39 -43 -9 -8 29 -62 23 -63 -7 -1 -27 -12
-44 -27 -44 -7 0 -20 -12 -30 -25 -17 -23 -17 -25 0 -33 24 -12 34 -7 78 34
20 19 44 34 54 34 25 0 48 21 55 53 9 36 -8 35 -24 -3z"/>
<path d="M2880 5264 c0 -8 5 -12 10 -9 6 3 10 10 10 16 0 5 -4 9 -10 9 -5 0
-10 -7 -10 -16z"/>
<path d="M3097 5254 c-20 -17 -27 -30 -22 -42 6 -14 11 -12 36 18 45 53 36 69
-14 24z"/>
<path d="M2805 5230 c-7 -11 2 -30 15 -30 4 0 10 6 13 14 6 16 -19 30 -28 16z"/>
<path d="M3109 5154 c-8 -17 -19 -24 -31 -21 -14 4 -18 -1 -18 -21 0 -14 -8
-34 -17 -45 -16 -17 -16 -20 -2 -31 13 -9 16 -25 14 -71 -2 -33 2 -66 7 -72 8
-10 0 -12 -36 -11 -25 1 -46 4 -46 6 0 1 9 13 20 25 22 23 23 64 1 59 -9 -2
-11 6 -6 29 6 27 5 31 -10 26 -9 -4 -23 -7 -31 -7 -24 0 -18 -57 8 -71 l21
-11 -21 -17 c-12 -9 -25 -31 -28 -50 l-7 -34 33 7 c19 3 37 12 42 19 6 9 10 9
20 -1 17 -17 55 -15 62 3 13 36 97 11 156 -46 30 -29 104 -79 140 -95 47 -20
84 -42 102 -61 12 -13 24 -23 28 -23 9 0 70 55 70 63 0 3 12 18 26 32 20 20
33 25 51 20 18 -4 23 -2 19 7 -3 7 -9 21 -12 31 -4 9 -13 17 -22 17 -13 0 -13
3 -4 12 10 10 15 10 21 -1 5 -8 14 -10 21 -6 9 5 5 14 -14 32 -14 13 -26 28
-26 33 0 12 -75 60 -93 60 -8 0 -36 20 -63 45 -27 25 -57 47 -68 51 -10 3 -44
21 -75 40 -45 27 -66 34 -109 34 -62 0 -92 13 -92 40 0 30 -16 32 -31 4z m16
-55 c10 -15 -1 -23 -20 -15 -9 3 -13 10 -10 16 8 13 22 13 30 -1z m485 -289
c0 -5 -5 -10 -11 -10 -5 0 -7 5 -4 10 3 6 8 10 11 10 2 0 4 -4 4 -10z"/>
<path d="M2941 5087 c-18 -18 -13 -24 19 -19 17 2 30 8 30 12 0 13 -38 18 -49
7z"/>
<path d="M3765 4840 c-4 -7 -2 -17 4 -23 16 -16 14 -23 -16 -36 -22 -10 -28
-10 -35 4 -9 14 -28 12 -28 -3 0 -14 60 -33 96 -30 49 4 65 28 44 66 -17 29
-53 41 -65 22z"/>
<path d="M2875 4831 c-6 -11 9 -23 19 -14 9 9 7 23 -3 23 -6 0 -12 -4 -16 -9z"/>
<path d="M3725 4820 c-3 -5 -1 -10 4 -10 6 0 11 5 11 10 0 6 -2 10 -4 10 -3 0
-8 -4 -11 -10z"/>
<path d="M3103 4772 c-62 -20 -73 -30 -52 -45 24 -18 30 -45 13 -55 -22 -12
-24 -43 -5 -77 24 -42 33 -92 18 -102 -7 -4 -34 -8 -62 -8 -43 0 -50 -3 -53
-21 -6 -39 21 -47 69 -22 59 29 89 58 89 85 0 38 70 61 203 68 44 2 64 8 80
24 l21 21 -22 0 c-12 0 -25 6 -28 14 -6 16 -87 76 -103 76 -6 0 -11 -7 -11
-16 0 -11 -11 -3 -30 21 -16 21 -30 42 -30 46 0 13 -38 9 -97 -9z"/>
<path d="M2850 4664 c0 -9 5 -14 12 -12 18 6 21 28 4 28 -9 0 -16 -7 -16 -16z"/>
<path d="M2935 4632 c-7 -35 -1 -52 21 -52 18 0 18 40 0 65 -13 18 -14 17 -21
-13z"/>
<path d="M2610 4480 c0 -5 5 -10 10 -10 6 0 10 5 10 10 0 6 -4 10 -10 10 -5 0
-10 -4 -10 -10z"/>
<path d="M3670 4410 c0 -5 7 -10 16 -10 8 0 12 5 9 10 -3 6 -10 10 -16 10 -5
0 -9 -4 -9 -10z"/>
<path d="M3740 4249 c0 -5 5 -7 10 -4 6 3 10 8 10 11 0 2 -4 4 -10 4 -5 0 -10
-5 -10 -11z"/>
<path d="M2860 4111 c0 -6 5 -13 10 -16 6 -3 10 1 10 9 0 9 -4 16 -10 16 -5 0
-10 -4 -10 -9z"/>
<path d="M2507 4061 c-3 -12 -1 -21 3 -21 15 0 23 21 12 32 -6 6 -11 2 -15
-11z"/>
<path d="M3460 4056 c0 -28 14 -35 23 -12 3 8 -1 20 -9 26 -12 10 -14 8 -14
-14z"/>
<path d="M2870 4045 c0 -8 5 -15 10 -15 6 0 10 7 10 15 0 8 -4 15 -10 15 -5 0
-10 -7 -10 -15z"/>
<path d="M2597 4033 c-13 -12 -7 -21 18 -25 27 -6 32 1 13 20 -14 14 -22 15
-31 5z"/>
<path d="M2810 3992 c0 -19 78 -107 87 -98 7 7 56 -19 72 -38 8 -9 24 -16 37
-16 19 0 24 5 24 24 0 30 -7 35 -62 44 -40 7 -43 10 -40 37 2 24 -3 32 -23 42
-27 12 -36 -2 -14 -24 6 -6 8 -16 5 -22 -11 -18 -35 0 -46 35 -12 36 -40 47
-40 16z"/>
<path d="M2552 3982 c-9 -6 -7 -13 10 -29 44 -39 78 -57 90 -45 8 8 4 13 -14
17 -13 3 -32 19 -42 36 -18 31 -24 33 -44 21z"/>
<path d="M1464 3935 c-16 -12 -16 -14 -3 -15 9 0 22 7 29 15 16 19 0 19 -26 0z"/>
<path d="M2380 3942 c0 -13 27 -35 39 -30 5 1 -2 11 -15 21 -13 10 -24 14 -24
9z"/>
<path d="M3183 3920 c25 -20 57 -27 57 -12 0 9 -49 32 -68 32 -9 0 -5 -8 11
-20z"/>
<path d="M1378 3913 c7 -3 16 -2 19 1 4 3 -2 6 -13 5 -11 0 -14 -3 -6 -6z"/>
<path d="M2436 3882 c-20 -40 -17 -50 8 -23 10 11 16 28 14 38 -3 14 -8 11
-22 -15z"/>
<path d="M3116 3902 c-3 -6 -15 -8 -26 -5 -18 5 -20 0 -20 -35 0 -34 3 -39 19
-35 10 2 23 20 29 41 11 35 10 53 -2 34z"/>
<path d="M3245 3900 c-10 -17 20 -44 40 -36 9 3 15 14 13 23 -4 21 -43 30 -53
13z"/>
<path d="M2360 3820 c0 -5 5 -10 11 -10 5 0 7 5 4 10 -3 6 -8 10 -11 10 -2 0
-4 -4 -4 -10z"/>
<path d="M2335 3710 c-8 -13 4 -32 16 -25 12 8 12 35 0 35 -6 0 -13 -4 -16
-10z"/>
<path d="M2881 3694 c0 -11 3 -14 6 -6 3 7 2 16 -1 19 -3 4 -6 -2 -5 -13z"/>
<path d="M2473 3683 c-26 -18 -29 -35 -9 -52 10 -9 16 -9 21 -1 6 10 17 71 12
69 -1 0 -12 -7 -24 -16z"/>
<path d="M2390 3666 c0 -17 27 -29 35 -16 4 6 3 15 0 20 -9 15 -35 12 -35 -4z"/>
<path d="M2560 3661 c0 -6 5 -13 10 -16 6 -3 10 1 10 9 0 9 -4 16 -10 16 -5 0
-10 -4 -10 -9z"/>
<path d="M4091 3629 c-23 -25 -27 -54 -9 -65 6 -4 16 0 23 9 15 21 25 22 25 2
0 -8 5 -15 11 -15 6 0 9 17 7 42 -4 51 -25 61 -57 27z"/>
<path d="M2230 3630 c0 -5 5 -10 10 -10 6 0 10 5 10 10 0 6 -4 10 -10 10 -5 0
-10 -4 -10 -10z"/>
<path d="M3958 3624 c-5 -4 -8 -16 -8 -28 0 -14 3 -17 11 -9 6 6 9 19 7 28 -1
9 -6 13 -10 9z"/>
<path d="M822 3548 c2 -18 8 -33 13 -33 6 0 11 15 13 33 3 24 -1 32 -13 32
-12 0 -16 -8 -13 -32z"/>
<path d="M2575 3560 c27 -12 43 -12 25 0 -8 5 -22 9 -30 9 -10 0 -8 -3 5 -9z"/>
<path d="M2426 3534 c-3 -9 -6 -23 -6 -32 1 -14 5 -12 20 7 11 12 17 27 14 32
-8 14 -21 11 -28 -7z"/>
<path d="M2557 3513 c-14 -13 -7 -33 11 -33 24 0 32 8 25 26 -5 15 -25 19 -36
7z"/>
<path d="M1752 3490 c1 -13 9 -25 16 -28 17 -5 15 23 -4 39 -14 11 -15 10 -12
-11z"/>
<path d="M4080 3475 c-11 -13 -9 -15 15 -15 16 0 25 5 23 12 -7 19 -24 20 -38
3z"/>
<path d="M4135 3481 c-6 -11 9 -23 19 -14 9 9 7 23 -3 23 -6 0 -12 -4 -16 -9z"/>
<path d="M2391 3439 c-15 -20 -28 -28 -38 -25 -25 10 -53 -23 -53 -61 0 -22
-6 -36 -17 -40 -9 -4 -25 -15 -35 -25 -18 -18 -18 -19 4 -27 22 -8 56 -38 87
-77 13 -15 12 -21 -6 -53 -11 -20 -32 -42 -47 -49 -31 -16 -34 -42 -6 -67 19
-17 20 -16 52 15 18 18 33 39 34 48 5 33 27 72 41 72 11 0 13 7 8 29 -7 33 7
48 25 26 19 -23 40 -18 40 10 0 31 16 33 24 3 5 -22 6 -22 20 -3 15 20 15 20
16 -2 0 -30 -27 -61 -67 -78 -34 -14 -63 -66 -63 -111 0 -29 26 -32 72 -8 24
13 36 14 49 5 10 -6 25 -8 33 -5 9 4 20 -5 31 -25 13 -27 18 -29 35 -19 10 7
23 9 27 5 4 -5 1 -12 -6 -16 -10 -7 -10 -13 -2 -29 10 -18 15 -20 41 -10 17 5
30 14 30 19 0 5 -21 30 -46 56 -25 27 -54 63 -66 81 -21 34 -38 34 -38 1 0
-20 -16 -27 -22 -9 -1 5 -1 33 0 60 3 40 7 50 20 48 13 -2 16 3 14 22 -3 31
-29 71 -45 69 -7 -1 -19 0 -27 3 -72 26 -102 31 -110 19 -6 -10 -9 -10 -15 -1
-4 7 -3 15 3 19 5 3 13 30 17 58 4 29 11 55 16 59 11 7 12 44 1 44 -5 0 -18
-14 -31 -31z m-17 -220 c-3 -5 -10 -7 -15 -3 -5 3 -7 10 -3 15 3 5 10 7 15 3
5 -3 7 -10 3 -15z m221 -179 c-3 -5 -11 -10 -16 -10 -6 0 -7 5 -4 10 3 6 11
10 16 10 6 0 7 -4 4 -10z"/>
<path d="M2510 3395 c0 -18 5 -25 19 -25 26 0 36 17 21 35 -19 23 -40 18 -40
-10z"/>
<path d="M3908 3323 c7 -3 16 -2 19 1 4 3 -2 6 -13 5 -11 0 -14 -3 -6 -6z"/>
<path d="M4913 3277 c-13 -13 -23 -28 -23 -35 0 -23 18 -12 39 23 23 40 17 44
-16 12z"/>
<path d="M1252 3238 c2 -15 10 -23 23 -23 21 0 43 -47 44 -93 1 -14 6 -22 14
-20 7 3 14 29 17 63 3 33 11 60 18 63 6 2 12 8 12 13 0 6 -8 6 -19 -1 -29 -15
-81 -12 -87 5 -9 23 -26 18 -22 -7z"/>
<path d="M5026 3244 c-9 -22 -8 -24 9 -18 8 4 15 12 15 20 0 19 -16 18 -24 -2z"/>
<path d="M3790 3231 c0 -25 19 -38 31 -20 12 19 6 33 -14 37 -11 2 -17 -3 -17
-17z"/>
<path d="M3835 3190 c-4 -12 -1 -27 5 -35 11 -13 16 -12 37 5 14 11 34 20 44
20 11 0 19 5 19 10 0 6 -10 8 -24 4 -13 -3 -27 -1 -30 5 -12 18 -44 12 -51 -9z"/>
<path d="M3711 3191 c-8 -5 -11 -16 -8 -26 4 -9 11 -13 17 -10 6 3 13 0 16 -9
7 -18 34 -9 34 11 0 9 -8 22 -17 29 -21 16 -24 16 -42 5z"/>
<path d="M2243 3153 c-16 -6 -17 -29 -1 -39 10 -7 38 20 38 38 0 9 -18 9 -37
1z"/>
<path d="M3787 3082 c-34 -38 -13 -58 23 -22 11 11 20 25 20 30 0 16 -26 11
-43 -8z"/>
<path d="M3593 3061 c-7 -10 -9 -22 -6 -25 6 -6 32 23 33 37 0 14 -15 7 -27
-12z"/>
<path d="M2008 3029 c-19 -32 -24 -89 -9 -89 11 0 21 25 21 55 0 15 9 29 21
36 17 9 19 13 8 20 -20 13 -22 12 -41 -22z"/>
<path d="M3705 3020 c-3 -5 4 -23 16 -40 15 -20 20 -33 13 -40 -6 -6 -8 -26
-6 -45 6 -52 32 -26 32 32 0 65 -35 125 -55 93z"/>
<path d="M2160 2975 c0 -19 -4 -35 -10 -35 -5 0 -10 -5 -10 -10 0 -18 38 13
42 35 5 25 0 45 -13 45 -5 0 -9 -16 -9 -35z"/>
<path d="M3584 2997 c-4 -10 -2 -23 3 -28 14 -14 24 13 13 32 -7 11 -10 10
-16 -4z"/>
<path d="M2110 2980 c0 -5 5 -10 10 -10 6 0 10 5 10 10 0 6 -4 10 -10 10 -5 0
-10 -4 -10 -10z"/>
<path d="M3530 2980 c0 -5 5 -10 10 -10 6 0 10 5 10 10 0 6 -4 10 -10 10 -5 0
-10 -4 -10 -10z"/>
<path d="M2242 2955 c0 -16 2 -22 5 -12 2 9 2 23 0 30 -3 6 -5 -1 -5 -18z"/>
<path d="M1845 2950 c-3 -5 1 -10 10 -10 9 0 13 5 10 10 -3 6 -8 10 -10 10 -2
0 -7 -4 -10 -10z"/>
<path d="M4787 2953 c-4 -3 -7 -11 -7 -16 0 -6 3 -7 6 -4 4 3 16 1 27 -4 15
-8 22 -8 28 2 4 7 5 17 3 21 -6 10 -48 11 -57 1z"/>
<path d="M2606 2941 c-4 -7 -5 -15 -2 -18 9 -9 19 4 14 18 -4 11 -6 11 -12 0z"/>
<path d="M3620 2925 c0 -27 6 -30 29 -16 17 11 7 41 -14 41 -9 0 -15 -9 -15
-25z"/>
<path d="M3970 2941 c-22 -6 -25 -12 -25 -57 0 -53 -8 -74 -30 -74 -11 0 -13
10 -8 45 3 25 2 45 -3 45 -12 0 -36 -78 -29 -91 3 -5 2 -17 -4 -26 -13 -25 14
-72 42 -73 4 0 11 10 16 22 7 19 16 22 72 23 35 1 74 5 87 9 19 6 24 4 29 -12
6 -23 43 -42 83 -42 17 0 30 -5 30 -11 0 -6 -8 -8 -19 -4 -21 6 -36 -9 -45
-47 -5 -21 -3 -28 9 -28 8 0 15 9 15 20 0 22 35 46 45 30 8 -14 42 -13 51 1 4
7 -1 16 -10 21 -23 13 -20 24 13 54 17 15 32 40 36 62 4 20 11 42 17 49 15 19
2 30 -43 36 -23 3 -45 11 -49 18 -4 6 -30 13 -56 14 -27 2 -60 5 -74 8 -47 10
-125 14 -150 8z"/>
<path d="M2630 2900 c0 -5 5 -10 10 -10 6 0 10 5 10 10 0 6 -4 10 -10 10 -5 0
-10 -4 -10 -10z"/>
<path d="M2670 2853 c0 -20 18 -43 33 -43 4 0 7 12 5 27 -4 32 -38 46 -38 16z"/>
<path d="M3630 2828 c0 -9 5 -20 11 -23 17 -11 18 -2 3 19 -12 17 -14 17 -14
4z"/>
<path d="M954 2803 c-21 -7 -3 -41 24 -46 33 -7 54 9 26 20 -10 4 -23 12 -29
19 -5 6 -15 10 -21 7z"/>
<path d="M2731 2798 c-1 -11 -9 -18 -20 -18 -29 0 -39 -21 -29 -57 7 -26 14
-33 33 -33 30 0 41 -16 19 -28 -21 -12 -14 -67 13 -108 l18 -28 5 27 c4 19 9
24 18 18 8 -4 12 -16 10 -27 -3 -21 19 -29 41 -15 12 8 12 13 -3 35 -13 20
-15 38 -10 76 6 49 6 51 -39 96 -25 25 -48 53 -50 62 -4 15 -5 15 -6 0z m53
-113 c11 -8 16 -15 10 -15 -5 0 -18 7 -28 15 -11 8 -16 15 -10 15 5 0 18 -7
28 -15z m2 -92 c-10 -10 -19 5 -10 18 6 11 8 11 12 0 2 -7 1 -15 -2 -18z"/>
<path d="M630 2745 c0 -8 0 -18 -1 -22 0 -4 4 -9 10 -11 6 -2 11 8 11 22 0 14
-4 26 -10 26 -5 0 -10 -7 -10 -15z"/>
<path d="M722 2740 c0 -14 2 -19 5 -12 2 6 2 18 0 25 -3 6 -5 1 -5 -13z"/>
<path d="M3990 2721 c0 -14 6 -21 18 -21 10 0 23 -5 28 -10 17 -17 74 0 74 21
0 15 -8 19 -37 19 -21 0 -48 3 -60 6 -19 5 -23 2 -23 -15z"/>
<path d="M443 2693 c9 -9 19 -14 23 -11 10 10 -6 28 -24 28 -15 0 -15 -1 1
-17z"/>
<path d="M705 2680 c-7 -12 2 -30 16 -30 5 0 9 9 9 20 0 21 -15 27 -25 10z"/>
<path d="M3839 2590 c-1 -16 -2 -36 -3 -42 -1 -7 7 -14 17 -16 12 -3 17 3 17
20 0 61 -29 95 -31 38z"/>
<path d="M931 2594 c0 -11 3 -14 6 -6 3 7 2 16 -1 19 -3 4 -6 -2 -5 -13z"/>
<path d="M1827 2576 c-3 -8 -3 -24 0 -37 6 -22 7 -22 14 -3 11 27 11 54 0 54
-5 0 -11 -6 -14 -14z"/>
<path d="M3960 2569 c0 -5 5 -7 10 -4 6 3 10 8 10 11 0 2 -4 4 -10 4 -5 0 -10
-5 -10 -11z"/>
<path d="M1930 2556 c0 -8 5 -18 10 -21 6 -3 10 3 10 14 0 12 -4 21 -10 21 -5
0 -10 -6 -10 -14z"/>
<path d="M2128 2552 c-29 -18 -38 -61 -18 -92 10 -17 9 -18 44 37 42 69 32 90
-26 55z"/>
<path d="M4008 2545 c-4 -17 -1 -25 8 -25 8 0 14 9 14 19 0 30 -17 34 -22 6z"/>
<path d="M632 2540 c0 -14 2 -19 5 -12 2 6 2 18 0 25 -3 6 -5 1 -5 -13z"/>
<path d="M2283 2553 c-13 -2 -23 -11 -23 -19 0 -8 -4 -14 -10 -14 -5 0 -10 7
-10 15 0 30 -21 14 -40 -31 -12 -27 -20 -68 -20 -100 0 -47 3 -56 23 -64 12
-5 17 -9 11 -9 -6 -1 -14 -29 -18 -63 -3 -34 -13 -69 -21 -78 -8 -9 -15 -22
-15 -28 0 -6 -10 -14 -23 -17 -28 -7 -60 -57 -51 -79 8 -22 31 -20 44 4 6 11
17 17 25 14 10 -4 17 7 25 38 6 23 15 53 20 66 6 13 10 36 10 52 0 39 17 80
32 80 15 0 41 -52 37 -72 -2 -7 0 -26 4 -41 9 -31 -6 -59 -27 -51 -8 3 -16
-11 -22 -38 -8 -36 -15 -45 -52 -63 -47 -22 -49 -34 -8 -53 19 -10 25 -19 21
-32 -3 -10 0 -22 6 -26 9 -5 8 -9 -4 -13 -16 -6 -16 -8 -1 -29 11 -17 19 -20
28 -13 7 6 37 9 66 8 44 -3 57 -9 74 -30 12 -15 31 -27 43 -27 11 0 23 -6 26
-14 3 -7 18 -17 34 -20 47 -12 75 -35 68 -57 -4 -13 -2 -19 8 -19 21 0 31 81
12 96 -8 6 -15 16 -15 21 0 5 -9 18 -20 28 -18 17 -19 20 -5 41 26 40 13 146
-16 128 -6 -3 -24 3 -40 15 -22 16 -29 18 -29 7 0 -12 -8 -11 -47 3 -46 16
-48 18 -48 56 0 52 25 58 64 16 24 -26 34 -30 59 -25 24 5 31 2 36 -14 4 -11
16 -22 26 -25 14 -3 20 -14 20 -32 0 -39 24 -26 28 16 4 53 11 79 23 79 6 0 9
-14 7 -32 -2 -27 0 -32 15 -30 12 2 17 -4 17 -23 0 -14 -4 -25 -10 -25 -5 0
-10 5 -10 12 0 6 -9 2 -20 -10 -12 -13 -20 -35 -20 -57 0 -19 -4 -35 -10 -35
-15 0 -12 -36 5 -50 8 -7 15 -23 15 -36 0 -13 3 -24 8 -24 17 1 42 29 42 49 0
33 17 25 23 -11 3 -22 -1 -39 -11 -51 -8 -9 -13 -19 -10 -22 3 -3 35 -6 72 -8
64 -3 69 -1 88 26 15 21 18 31 9 40 -8 8 -11 7 -11 -6 0 -29 -34 -18 -58 20
-21 32 -22 38 -8 51 12 12 18 13 29 3 12 -9 16 -7 21 14 3 13 1 33 -6 44 -9
15 -8 23 10 46 12 15 19 31 16 36 -3 5 -32 9 -64 9 -96 0 -152 41 -67 48 20 2
37 7 37 11 0 15 -25 31 -47 31 -13 0 -23 5 -23 10 0 6 13 10 29 10 16 0 31 6
35 15 7 21 43 19 55 -2 8 -15 13 -16 30 -5 12 6 30 12 42 12 17 0 20 -5 16
-21 -6 -23 10 -78 30 -97 7 -7 13 -20 13 -27 0 -19 46 -49 64 -42 17 7 16 100
-1 133 -6 10 -8 25 -6 31 3 7 -2 16 -11 19 -11 4 -16 19 -16 44 0 24 -7 43
-20 55 -11 10 -20 27 -20 37 0 11 -5 18 -12 15 -8 -2 -12 -17 -10 -39 4 -46
-23 -72 -44 -43 -8 10 -14 31 -14 45 0 18 -10 34 -30 48 l-30 22 -20 -22 c-12
-13 -28 -30 -36 -40 -14 -14 -14 -19 -1 -40 21 -32 6 -71 -25 -66 -15 2 -24
11 -26 27 -4 25 -41 63 -54 54 -5 -2 -8 -15 -8 -28 0 -44 -70 -57 -101 -19 -6
8 -27 14 -45 14 -36 0 -41 9 -23 43 10 18 8 24 -17 45 -85 72 -115 106 -121
133 -5 25 -3 28 11 23 9 -4 23 -19 31 -33 19 -38 86 -101 106 -101 9 0 29 -10
44 -21 22 -18 29 -20 36 -8 13 21 11 25 -16 43 -49 32 -21 89 35 71 17 -5 20
-2 20 24 0 26 -6 32 -56 55 -54 25 -117 31 -181 19z m127 -78 c10 -12 10 -15
-4 -15 -9 0 -16 7 -16 15 0 8 2 15 4 15 2 0 9 -7 16 -15z m476 -222 c-11 -11
-19 6 -11 24 8 17 8 17 12 0 3 -10 2 -21 -1 -24z m-531 17 c3 -5 -1 -10 -10
-10 -9 0 -13 5 -10 10 3 6 8 10 10 10 2 0 7 -4 10 -10z m548 -82 c8 -30 -2
-37 -19 -14 -18 25 -18 36 0 36 7 0 16 -10 19 -22z m5 -91 c2 -10 -3 -17 -12
-17 -18 0 -29 16 -21 31 9 14 29 6 33 -14z m-538 -147 c8 -5 11 -12 8 -16 -10
-9 -38 3 -38 16 0 12 10 13 30 0z m130 -120 c0 -5 -4 -10 -10 -10 -5 0 -10 5
-10 10 0 6 5 10 10 10 6 0 10 -4 10 -10z"/>
<path d="M2574 2544 c3 -9 6 -22 6 -30 0 -9 5 -12 10 -9 17 10 12 55 -6 55
-11 0 -14 -5 -10 -16z"/>
<path d="M4102 2540 c0 -14 2 -19 5 -12 2 6 2 18 0 25 -3 6 -5 1 -5 -13z"/>
<path d="M1145 2510 c3 -5 8 -10 11 -10 2 0 4 5 4 10 0 6 -5 10 -11 10 -5 0
-7 -4 -4 -10z"/>
<path d="M2860 2510 c0 -5 -9 -19 -21 -31 -11 -11 -18 -23 -15 -27 4 -3 12 0
18 6 16 16 28 15 28 -3 0 -8 -8 -15 -17 -15 -13 0 -14 -3 -5 -12 8 -8 15 -8
26 2 9 7 26 10 41 6 37 -9 32 16 -10 53 -38 33 -45 36 -45 21z"/>
<path d="M387 2503 c-4 -3 -7 -11 -7 -17 0 -6 5 -5 12 2 6 6 9 14 7 17 -3 3
-9 2 -12 -2z"/>
<path d="M4115 2501 c-3 -5 -1 -12 5 -16 5 -3 10 1 10 9 0 18 -6 21 -15 7z"/>
<path d="M4240 2447 c0 -38 4 -67 10 -67 6 0 10 16 10 36 0 33 2 36 25 32 20
-4 25 -1 25 14 0 12 -5 18 -12 15 -7 -2 -23 5 -35 16 l-23 20 0 -66z"/>
<path d="M4050 2490 c0 -5 5 -10 10 -10 6 0 10 5 10 10 0 6 -4 10 -10 10 -5 0
-10 -4 -10 -10z"/>
<path d="M1891 2483 c0 -5 4 -17 9 -28 8 -18 9 -17 9 8 1 15 -3 27 -9 27 -5 0
-10 -3 -9 -7z"/>
<path d="M518 2466 c-20 -14 -14 -26 12 -26 10 0 25 -10 34 -22 15 -23 16 -23
31 -4 8 11 15 30 15 43 0 20 -5 23 -37 23 -21 0 -46 -7 -55 -14z"/>
<path d="M800 2455 l-22 -23 31 -7 c38 -8 86 1 102 21 16 20 6 27 -45 30 -35
2 -48 -2 -66 -21z"/>
<path d="M1045 2470 c-4 -6 -15 -8 -26 -5 -10 4 -19 2 -19 -3 0 -14 43 -20 68
-11 12 5 22 13 22 19 0 13 -37 13 -45 0z"/>
<path d="M1754 2467 c-3 -9 1 -24 11 -33 15 -15 15 -14 9 12 -9 37 -12 41 -20
21z"/>
<path d="M2767 2468 c-12 -9 -14 -17 -7 -28 8 -13 10 -13 10 2 0 9 8 22 18 27
9 6 12 11 6 11 -5 0 -18 -6 -27 -12z"/>
<path d="M1207 2463 c-6 -10 -3 -46 5 -59 4 -5 3 -16 -1 -23 -6 -9 -11 -10
-15 -2 -4 6 -5 15 -1 20 3 5 0 13 -6 16 -15 10 -73 -51 -63 -66 5 -9 10 -7 19
5 11 15 13 15 19 1 4 -10 15 -14 33 -12 29 4 40 29 39 91 -1 28 -19 46 -29 29z"/>
<path d="M4160 2460 c0 -5 5 -10 11 -10 5 0 7 5 4 10 -3 6 -8 10 -11 10 -2 0
-4 -4 -4 -10z"/>
<path d="M22 2423 c-23 -25 -30 -63 -12 -63 6 0 10 -13 10 -30 0 -16 -4 -30
-10 -30 -6 0 -10 -31 -10 -74 0 -85 1 -86 102 -86 31 0 60 -4 63 -10 13 -21
25 -9 13 13 -7 12 -11 28 -10 34 2 9 -6 11 -28 7 -35 -8 -40 8 -9 30 29 20 16
38 -17 26 -14 -6 -39 -10 -55 -10 -24 0 -29 4 -29 24 0 13 7 26 15 30 8 3 15
12 15 20 0 7 7 27 15 42 17 33 21 99 5 89 -6 -4 -16 -2 -23 3 -9 8 -19 3 -35
-15z"/>
<path d="M2605 2418 c14 -62 32 -68 27 -8 -3 27 -9 40 -19 40 -11 0 -13 -7 -8
-32z"/>
<path d="M977 2433 c-4 -3 -7 -11 -7 -17 0 -6 5 -5 12 2 6 6 9 14 7 17 -3 3
-9 2 -12 -2z"/>
<path d="M2080 2430 c0 -5 5 -10 10 -10 6 0 10 5 10 10 0 6 -4 10 -10 10 -5 0
-10 -4 -10 -10z"/>
<path d="M407 2413 c-14 -13 -6 -21 23 -25 34 -5 40 6 11 22 -23 12 -26 12
-34 3z"/>
<path d="M654 2407 c-8 -21 2 -35 16 -21 5 5 6 15 0 24 -8 12 -10 12 -16 -3z"/>
<path d="M2904 2405 c-4 -8 -3 -23 0 -32 6 -15 8 -15 16 -3 13 20 12 50 0 50
-6 0 -13 -7 -16 -15z"/>
<path d="M3946 2391 c-4 -5 -2 -12 3 -15 5 -4 12 -2 15 3 4 5 2 12 -3 15 -5 4
-12 2 -15 -3z"/>
<path d="M553 2376 c-21 -10 -33 -46 -15 -46 8 1 46 50 40 54 -1 1 -13 -3 -25
-8z"/>
<path d="M753 2363 c9 -2 23 -2 30 0 6 3 -1 5 -18 5 -16 0 -22 -2 -12 -5z"/>
<path d="M3865 2360 c-3 -5 3 -10 14 -10 12 0 21 5 21 10 0 6 -6 10 -14 10 -8
0 -18 -4 -21 -10z"/>
<path d="M3910 2340 c0 -5 5 -10 11 -10 5 0 7 5 4 10 -3 6 -8 10 -11 10 -2 0
-4 -4 -4 -10z"/>
<path d="M422 2310 c13 -18 31 -30 44 -30 30 0 35 -20 24 -98 -5 -38 -5 -71
-1 -75 11 -11 34 29 26 43 -12 20 55 10 76 -11 20 -20 23 -20 31 -5 6 10 17
15 27 11 11 -3 25 3 36 15 l18 20 11 -22 c7 -13 19 -23 28 -23 9 0 20 -4 24
-8 12 -11 24 -8 24 6 0 18 -54 57 -79 57 -10 0 -22 7 -25 16 -3 8 -10 13 -15
9 -6 -3 -15 3 -21 15 -6 12 -19 19 -32 17 -16 -1 -23 5 -30 29 -8 31 -9 31
-59 26 -43 -4 -52 -2 -65 17 -9 12 -26 21 -40 21 l-25 0 23 -30z m136 -77 c-5
-25 -28 -28 -28 -4 0 12 6 21 16 21 9 0 14 -7 12 -17z m-22 -60 c-10 -10 -19
5 -10 18 6 11 8 11 12 0 2 -7 1 -15 -2 -18z"/>
<path d="M2530 2330 c0 -5 5 -10 10 -10 6 0 10 5 10 10 0 6 -4 10 -10 10 -5 0
-10 -4 -10 -10z"/>
<path d="M250 2310 c0 -5 5 -10 10 -10 6 0 10 5 10 10 0 6 -4 10 -10 10 -5 0
-10 -4 -10 -10z"/>
<path d="M4456 2312 c-3 -6 -1 -14 5 -17 15 -10 25 3 12 16 -7 7 -13 7 -17 1z"/>
<path d="M210 2300 c0 -5 4 -10 9 -10 6 0 13 5 16 10 3 6 -1 10 -9 10 -9 0
-16 -4 -16 -10z"/>
<path d="M656 2295 c4 -8 10 -15 15 -15 5 0 9 7 9 15 0 8 -7 15 -15 15 -9 0
-12 -6 -9 -15z"/>
<path d="M2096 2289 c-19 -19 -19 -19 0 -33 25 -18 34 -12 34 25 0 34 -7 35
-34 8z"/>
<path d="M2510 2299 c0 -5 5 -7 10 -4 6 3 10 8 10 11 0 2 -4 4 -10 4 -5 0 -10
-5 -10 -11z"/>
<path d="M410 2240 c0 -14 38 -32 58 -28 13 3 9 8 -15 21 -37 20 -43 21 -43 7z"/>
<path d="M910 2206 c0 -9 7 -16 16 -16 17 0 14 22 -4 28 -7 2 -12 -3 -12 -12z"/>
<path d="M4167 2191 c-80 -43 -118 -135 -85 -206 8 -19 19 -25 43 -25 17 0 37
6 43 12 10 10 17 10 33 0 16 -10 24 -10 35 -1 11 9 14 9 14 -2 0 -18 17 1 22
24 2 15 6 16 19 5 10 -7 20 -22 23 -34 5 -17 0 -23 -33 -34 -23 -7 -44 -9 -52
-4 -20 13 -62 11 -77 -4 -9 -8 -11 -22 -6 -45 4 -17 6 -42 5 -54 -1 -13 0 -27
4 -32 10 -17 35 0 35 23 0 11 5 28 10 36 8 12 13 13 30 3 11 -7 26 -13 34 -13
9 0 12 -7 9 -20 -4 -16 2 -23 31 -35 36 -15 69 -15 149 0 50 10 53 19 19 52
-17 15 -31 37 -33 47 -7 36 -29 30 -29 -8 0 -24 -5 -36 -14 -36 -14 0 -26 21
-26 47 0 8 -9 28 -20 44 -12 15 -23 52 -27 81 -3 29 -10 58 -17 63 -6 6 -19
27 -28 48 -10 21 -26 40 -35 44 -10 3 -24 11 -31 17 -11 8 -11 11 4 16 10 4
13 9 8 12 -5 3 -31 -6 -57 -21z"/>
<path d="M885 2180 c3 -5 8 -10 11 -10 2 0 4 5 4 10 0 6 -5 10 -11 10 -5 0 -7
-4 -4 -10z"/>
<path d="M1846 2159 c-9 -45 -7 -79 3 -79 5 0 12 11 15 25 4 14 14 25 23 25
13 0 14 3 5 12 -7 7 -12 20 -12 30 0 31 -27 20 -34 -13z"/>
<path d="M2994 2155 c3 -9 6 -28 6 -41 0 -13 5 -24 10 -24 6 0 10 6 10 14 0 8
12 16 28 18 26 3 26 4 -17 27 -37 19 -43 20 -37 6z"/>
<path d="M918 2153 c-27 -7 -21 -23 7 -23 14 0 25 4 25 9 0 13 -12 18 -32 14z"/>
<path d="M2020 2140 c0 -18 3 -19 20 -10 11 6 20 15 20 20 0 6 -9 10 -20 10
-13 0 -20 -7 -20 -20z"/>
<path d="M1930 2117 c0 -53 12 -87 31 -87 23 0 23 12 5 65 -16 45 -36 58 -36
22z"/>
<path d="M2740 2115 c7 -8 16 -15 21 -15 5 0 9 7 9 15 0 9 -9 15 -21 15 -18 0
-19 -2 -9 -15z"/>
<path d="M1070 2090 c0 -5 9 -14 19 -20 11 -5 23 -19 26 -30 8 -26 25 -16 25
15 0 24 -25 45 -54 45 -9 0 -16 -4 -16 -10z"/>
<path d="M169 2069 c-13 -10 -28 -19 -34 -19 -16 -1 -65 -89 -54 -96 5 -3 21
2 35 11 31 20 46 11 38 -22 -5 -18 -3 -24 4 -19 19 11 27 77 11 87 -9 6 -3 7
17 3 36 -7 49 6 40 40 -8 32 -28 37 -57 15z"/>
<path d="M290 2064 c-15 -39 -2 -47 25 -16 24 28 24 42 -1 42 -8 0 -19 -12
-24 -26z"/>
<path d="M0 2029 c0 -43 2 -50 14 -40 11 9 15 9 19 -1 2 -7 8 -10 12 -5 5 4 3
13 -3 19 -7 7 -12 27 -12 45 0 23 -5 33 -15 33 -11 0 -15 -12 -15 -51z"/>
<path d="M750 2045 c0 -15 4 -24 10 -20 6 3 10 12 10 20 0 8 -4 17 -10 20 -6
4 -10 -5 -10 -20z"/>
<path d="M2012 1990 c2 -32 7 -53 13 -50 12 6 7 81 -6 95 -7 7 -9 -9 -7 -45z"/>
<path d="M1868 2012 c-31 -4 -38 -31 -13 -52 12 -10 18 -10 30 0 9 7 19 9 23
5 4 -4 1 -10 -5 -12 -18 -7 -16 -43 2 -43 8 0 15 9 15 20 0 23 10 26 28 8 9
-9 12 -6 12 15 0 17 -7 30 -17 34 -10 3 -25 11 -33 17 -8 7 -27 10 -42 8z"/>
<path d="M2097 1985 c3 -13 14 -27 24 -30 10 -4 19 -11 19 -16 0 -5 5 -9 10
-9 15 0 12 30 -4 36 -8 3 -16 14 -19 25 -8 29 -35 24 -30 -6z"/>
<path d="M1109 1990 c-15 -4 -38 -6 -53 -5 -47 6 -44 -39 5 -65 12 -7 24 -4
42 10 16 13 28 16 32 10 13 -21 25 -9 25 25 0 37 -5 39 -51 25z"/>
<path d="M322 1978 c-7 -7 -12 -16 -12 -20 0 -15 15 -8 28 12 13 22 3 27 -16
8z"/>
<path d="M385 1960 c3 -5 8 -10 11 -10 2 0 4 5 4 10 0 6 -5 10 -11 10 -5 0 -7
-4 -4 -10z"/>
<path d="M1740 1949 c0 -5 5 -7 10 -4 6 3 10 8 10 11 0 2 -4 4 -10 4 -5 0 -10
-5 -10 -11z"/>
<path d="M1803 1924 c-10 -27 10 -69 35 -72 14 -2 22 -10 22 -23 0 -11 5 -29
10 -40 9 -16 7 -21 -15 -29 -42 -16 -25 -60 23 -60 21 0 23 -4 18 -25 -4 -14
-3 -25 2 -25 14 0 32 23 32 42 0 10 5 18 10 18 16 0 23 -27 12 -46 -12 -21 -4
-56 12 -51 23 8 29 63 10 106 -17 38 -19 40 -35 25 -20 -18 -21 -15 -32 57 -5
34 27 58 42 31 9 -16 10 -16 16 1 10 25 -2 52 -18 39 -15 -13 -79 -1 -102 18
-8 7 -15 21 -15 31 0 23 -18 25 -27 3z"/>
<path d="M4120 1929 c0 -5 5 -7 10 -4 6 3 10 8 10 11 0 2 -4 4 -10 4 -5 0 -10
-5 -10 -11z"/>
<path d="M767 1906 c-10 -15 -16 -30 -13 -34 11 -10 38 25 34 44 -3 15 -6 14
-21 -10z"/>
<path d="M36 1904 c-22 -22 -20 -33 9 -46 19 -8 31 -8 51 1 l27 12 -23 24
c-27 29 -42 31 -64 9z"/>
<path d="M951 1891 c-24 -24 -20 -41 10 -41 10 0 19 -4 19 -10 0 -5 -9 -10
-19 -10 -11 0 -23 -4 -26 -10 -3 -5 1 -10 9 -10 9 0 16 -4 16 -10 0 -8 -20
-11 -67 -10 -5 0 -8 13 -8 28 0 34 -27 41 -43 10 -23 -47 -34 -109 -21 -124
16 -19 33 -18 25 2 -4 10 3 26 18 40 24 24 24 24 29 3 4 -14 10 -18 19 -13 33
21 147 54 186 54 31 0 42 4 42 15 0 17 -14 19 -39 5 -11 -5 -36 -6 -62 -1 -43
8 -43 8 -14 15 17 4 44 11 61 16 17 6 38 10 48 10 12 0 16 7 14 23 -4 29 -51
35 -96 11 -32 -17 -33 -17 -56 5 l-24 23 -21 -21z"/>
<path d="M150 1890 c0 -5 5 -10 11 -10 5 0 7 5 4 10 -3 6 -8 10 -11 10 -2 0
-4 -4 -4 -10z"/>
<path d="M196 1853 c-11 -11 -6 -23 9 -23 8 0 15 4 15 9 0 13 -16 22 -24 14z"/>
<path d="M424 1849 c-6 -10 11 -28 28 -29 15 0 20 23 7 31 -19 12 -26 11 -35
-2z"/>
<path d="M1711 1844 c0 -11 3 -14 6 -6 3 7 2 16 -1 19 -3 4 -6 -2 -5 -13z"/>
<path d="M505 1840 c-3 -5 -1 -10 4 -10 6 0 11 5 11 10 0 6 -2 10 -4 10 -3 0
-8 -4 -11 -10z"/>
<path d="M558 1839 c-27 -15 -21 -31 10 -27 15 2 27 9 27 17 0 19 -16 23 -37
10z"/>
<path d="M630 1820 c0 -5 7 -10 16 -10 8 0 12 5 9 10 -3 6 -10 10 -16 10 -5 0
-9 -4 -9 -10z"/>
<path d="M275 1810 c3 -5 8 -10 11 -10 2 0 4 5 4 10 0 6 -5 10 -11 10 -5 0 -7
-4 -4 -10z"/>
<path d="M775 1810 c3 -5 8 -10 11 -10 2 0 4 5 4 10 0 6 -5 10 -11 10 -5 0 -7
-4 -4 -10z"/>
<path d="M68 1787 c-13 -13 -33 -27 -45 -31 -13 -4 -23 -11 -23 -16 0 -13 47
-40 70 -40 30 0 108 -39 124 -62 22 -31 56 -19 80 27 21 39 28 106 13 121 -4
4 -7 0 -7 -9 0 -12 -8 -17 -26 -17 -26 0 -26 -1 -10 -25 20 -31 20 -54 0 -62
-11 -4 -30 9 -60 41 -24 25 -48 46 -53 46 -5 0 -11 10 -13 22 -4 31 -24 33
-50 5z"/>
<path d="M710 1791 c0 -5 7 -11 15 -15 9 -3 15 0 15 9 0 8 -7 15 -15 15 -8 0
-15 -4 -15 -9z"/>
<path d="M357 1783 c-14 -13 -7 -33 11 -33 26 0 34 11 21 27 -13 14 -22 16
-32 6z"/>
<path d="M2820 1780 c0 -5 5 -10 11 -10 5 0 7 5 4 10 -3 6 -8 10 -11 10 -2 0
-4 -4 -4 -10z"/>
<path d="M750 1756 c0 -9 5 -16 10 -16 6 0 10 4 10 9 0 6 -4 13 -10 16 -5 3
-10 -1 -10 -9z"/>
<path d="M2471 1746 c-14 -17 11 -41 34 -32 13 4 14 10 5 26 -13 23 -23 25
-39 6z"/>
<path d="M2116 1725 c-8 -23 -8 -35 3 -35 13 0 20 25 11 39 -5 10 -9 8 -14 -4z"/>
<path d="M2605 1720 c3 -5 8 -10 11 -10 2 0 4 5 4 10 0 6 -5 10 -11 10 -5 0
-7 -4 -4 -10z"/>
<path d="M540 1710 c0 -5 5 -10 10 -10 6 0 10 5 10 10 0 6 -4 10 -10 10 -5 0
-10 -4 -10 -10z"/>
<path d="M4443 1706 c-26 -15 -20 -26 13 -26 12 0 24 -6 26 -12 4 -10 10 -10
33 0 27 12 27 13 10 32 -20 22 -49 24 -82 6z"/>
<path d="M420 1693 c-23 -10 -36 -11 -38 -4 -9 28 -56 -10 -86 -70 -19 -38
-16 -45 14 -29 15 8 25 8 34 1 7 -6 41 -10 77 -8 63 3 64 3 73 36 8 28 7 36
-8 46 -9 7 -15 18 -14 25 4 19 -13 20 -52 3z m-44 -82 c-8 -13 -36 -15 -36 -3
0 4 5 13 12 20 14 14 34 0 24 -17z"/>
<path d="M530 1675 c-19 -23 4 -73 25 -55 19 16 19 44 1 59 -10 9 -16 8 -26
-4z"/>
<path d="M0 1670 c0 -5 5 -10 10 -10 6 0 10 5 10 10 0 6 -4 10 -10 10 -5 0
-10 -4 -10 -10z"/>
<path d="M2480 1666 c0 -9 5 -16 10 -16 6 0 10 4 10 9 0 6 -4 13 -10 16 -5 3
-10 -1 -10 -9z"/>
<path d="M618 1632 c-16 -10 -28 -22 -28 -28 0 -6 -7 -25 -16 -43 -9 -17 -13
-38 -10 -46 8 -21 36 -19 36 3 0 10 4 22 9 28 5 5 11 20 13 34 4 30 36 39 54
15 15 -21 35 -11 27 13 -7 20 -32 42 -47 41 -6 0 -23 -8 -38 -17z"/>
<path d="M30 1620 c0 -5 -7 -10 -15 -10 -8 0 -15 -4 -15 -10 0 -5 9 -10 20
-10 11 0 20 2 20 4 0 2 3 11 6 20 3 9 1 16 -5 16 -6 0 -11 -4 -11 -10z"/>
<path d="M1660 1606 c0 -33 10 -57 21 -50 16 9 11 74 -6 74 -9 0 -15 -9 -15
-24z"/>
<path d="M1740 1554 c-11 -52 -10 -62 9 -101 21 -43 41 -52 70 -34 11 7 8 12
-12 23 -18 9 -24 17 -18 27 13 20 50 -4 63 -40 11 -31 27 -36 59 -18 16 8 25
7 39 -6 21 -19 20 -20 34 61 12 74 -17 134 -58 118 -23 -9 -20 -22 7 -26 14
-2 23 -11 25 -27 5 -33 -13 -48 -35 -29 -10 8 -24 13 -31 11 -8 -3 -16 4 -19
16 -4 14 -16 24 -36 28 -27 5 -28 7 -13 19 17 12 16 13 -2 23 -13 7 -22 7 -30
-1 -8 -8 -15 -8 -26 1 -12 10 -16 3 -26 -45z"/>
<path d="M2526 1601 c-3 -5 1 -14 8 -20 16 -13 32 2 21 19 -8 12 -22 13 -29 1z"/>
<path d="M175 1571 c-6 -11 9 -23 19 -14 9 9 7 23 -3 23 -6 0 -12 -4 -16 -9z"/>
<path d="M30 1530 c0 -19 -6 -33 -16 -37 -13 -5 -13 -8 -2 -15 10 -7 10 -11 0
-15 -20 -8 -14 -63 9 -82 l20 -16 -20 -27 c-18 -23 -21 -40 -21 -132 l0 -106
32 -30 c31 -29 32 -31 15 -44 -10 -8 -17 -23 -15 -33 3 -16 13 -18 76 -16 40
1 72 -2 72 -7 0 -6 -7 -10 -15 -10 -8 0 -15 -4 -15 -10 0 -16 -46 -23 -70 -10
-17 9 -29 9 -51 0 -27 -12 -29 -16 -29 -71 0 -32 5 -61 10 -64 6 -3 10 -12 10
-20 0 -8 11 -26 25 -41 19 -21 28 -24 38 -15 8 6 17 8 20 5 6 -6 49 24 88 62
9 8 17 25 17 37 1 112 10 178 27 197 10 11 22 20 27 20 15 0 85 74 93 98 4 13
14 22 26 22 12 0 19 7 19 19 0 17 -7 20 -50 19 -50 0 -59 -5 -40 -24 7 -7 0
-17 -20 -32 -24 -18 -34 -20 -50 -12 -11 6 -20 15 -20 20 0 16 31 40 51 40 17
0 18 3 9 21 -11 19 -13 19 -29 5 -32 -29 -44 -20 -38 26 7 49 -6 78 -33 78
-29 0 -34 19 -13 43 11 12 23 30 26 39 4 11 13 15 26 11 17 -4 21 -1 21 21 0
16 -5 26 -15 26 -8 0 -15 8 -15 19 0 19 -29 51 -31 35 -1 -5 -3 -19 -4 -30 -5
-45 -28 -57 -51 -26 -11 14 -16 15 -34 4 -11 -7 -25 -10 -30 -7 -15 9 -12 35
4 35 29 0 26 30 -4 45 l-30 16 0 -31z m20 -99 c0 -11 -31 -24 -39 -16 -3 3 1
10 9 15 19 12 30 12 30 1z m67 -61 c13 0 13 -3 3 -15 -16 -19 -44 -19 -59 -1
-13 16 3 28 27 20 8 -2 21 -4 29 -4z m-61 -496 c-3 -8 -10 -14 -16 -14 -11 0
-14 43 -3 54 10 10 26 -23 19 -40z"/>
<path d="M625 1521 c-4 -17 -11 -31 -16 -31 -5 0 -9 -7 -9 -15 0 -8 5 -15 10
-15 6 0 10 6 10 14 0 7 9 16 21 19 15 4 20 12 17 28 -5 34 -25 34 -33 0z"/>
<path d="M1036 1500 c-30 -10 -3 -20 30 -11 25 6 26 8 9 13 -11 3 -29 2 -39
-2z"/>
<path d="M1238 1483 c7 -3 16 -2 19 1 4 3 -2 6 -13 5 -11 0 -14 -3 -6 -6z"/>
<path d="M1607 1464 c-41 -22 -33 -52 18 -70 22 -7 41 -14 42 -14 8 -1 -13 48
-25 57 -13 11 -13 13 1 19 20 7 23 24 5 24 -7 -1 -26 -8 -41 -16z"/>
<path d="M324 1455 c-12 -9 -14 -14 -6 -15 7 0 20 7 28 15 20 19 4 20 -22 0z"/>
<path d="M620 1431 c0 -11 5 -23 10 -26 6 -4 10 5 10 19 0 14 -4 26 -10 26 -5
0 -10 -9 -10 -19z"/>
<path d="M1443 1443 c9 -2 23 -2 30 0 6 3 -1 5 -18 5 -16 0 -22 -2 -12 -5z"/>
<path d="M368 1432 c-10 -2 -18 -8 -18 -13 0 -13 27 -11 35 2 9 13 4 16 -17
11z"/>
<path d="M230 1393 c0 -10 -3 -28 -6 -40 -5 -18 -2 -23 14 -23 15 0 22 -7 24
-25 4 -35 20 -36 32 -2 8 23 7 30 -12 43 -12 8 -22 20 -22 25 0 6 -7 17 -15
25 -13 14 -15 13 -15 -3z"/>
<path d="M475 1390 c3 -5 11 -10 16 -10 6 0 7 5 4 10 -3 6 -11 10 -16 10 -6 0
-7 -4 -4 -10z"/>
<path d="M517 1360 c-3 -11 -1 -20 4 -20 5 0 9 2 9 4 0 2 3 11 6 20 3 9 2 16
-4 16 -5 0 -12 -9 -15 -20z"/>
<path d="M1906 1363 c-4 -9 1 -23 9 -32 9 -9 22 -25 29 -35 7 -10 18 -16 24
-12 16 10 26 66 13 79 -8 8 -11 8 -11 -1 0 -7 -7 -12 -15 -12 -8 0 -15 4 -15
9 0 17 -28 20 -34 4z"/>
<path d="M310 1356 c0 -7 7 -19 15 -26 9 -7 13 -21 9 -34 -2 -11 1 -28 8 -37
17 -21 90 -39 112 -27 18 10 21 54 6 78 -8 13 -13 13 -31 2 -18 -12 -23 -11
-35 7 -12 16 -66 51 -81 51 -1 0 -3 -6 -3 -14z"/>
<path d="M515 1287 c-9 -24 -15 -48 -13 -53 4 -13 -63 -84 -79 -84 -6 0 -15
-9 -18 -20 -3 -11 -10 -20 -14 -20 -16 0 -93 -79 -86 -89 3 -6 24 -11 46 -11
21 0 39 -4 39 -9 0 -18 -30 -20 -75 -4 -62 21 -70 11 -70 -82 0 -79 17 -117
36 -82 8 13 22 17 57 16 26 -1 38 -3 27 -6 -45 -9 -93 -36 -105 -58 -10 -18
-10 -41 -1 -103 7 -44 11 -84 10 -88 -1 -5 -1 -21 0 -36 1 -31 22 -36 77 -19
188 57 181 52 209 135 12 36 13 51 4 67 -10 19 -17 21 -59 16 -35 -4 -52 -2
-60 8 -27 32 -2 44 92 45 26 1 49 33 34 47 -3 4 1 14 10 24 11 13 15 30 12 56
-3 21 -2 50 3 64 5 20 0 38 -17 69 -17 29 -21 46 -14 55 9 11 4 180 -6 197
-11 17 -23 6 -39 -35z m-80 -427 c3 -6 -4 -14 -17 -19 -29 -11 -35 -6 -18 14
14 17 26 19 35 5z"/>
<path d="M2015 1250 c-3 -5 -1 -10 4 -10 6 0 11 5 11 10 0 6 -2 10 -4 10 -3 0
-8 -4 -11 -10z"/>
<path d="M1663 1220 c-7 -18 -8 -41 -3 -58 8 -29 14 -21 23 33 8 44 -6 61 -20
25z"/>
<path d="M943 1193 c3 -36 -33 -43 -62 -14 -21 21 -21 21 -21 1 0 -16 -7 -20
-31 -20 -20 0 -29 -4 -26 -12 2 -7 14 -12 27 -10 12 1 28 -3 36 -8 13 -12 109
1 161 21 25 9 23 29 -3 29 -8 0 -24 9 -36 20 -30 28 -47 25 -45 -7z"/>
<path d="M1250 1191 c0 -25 6 -27 13 -6 4 8 2 17 -3 20 -6 4 -10 -3 -10 -14z"/>
<path d="M1607 1183 c-13 -12 -7 -23 13 -23 11 0 20 7 20 15 0 15 -21 21 -33
8z"/>
<path d="M670 1170 c0 -5 5 -10 11 -10 5 0 7 5 4 10 -3 6 -8 10 -11 10 -2 0
-4 -4 -4 -10z"/>
<path d="M715 1170 c-7 -12 2 -30 16 -30 12 0 12 27 0 35 -5 3 -12 1 -16 -5z"/>
<path d="M1737 1154 c-4 -4 -7 -20 -7 -36 0 -23 4 -28 24 -28 21 0 23 3 17 32
-6 31 -21 45 -34 32z"/>
<path d="M1552 1108 c5 -15 37 -18 41 -3 1 6 -9 12 -22 13 -16 3 -22 -1 -19
-10z"/>
<path d="M2 1053 c2 -10 10 -18 18 -18 22 0 18 29 -3 33 -14 3 -18 -1 -15 -15z"/>
<path d="M905 930 c-9 -14 -1 -23 27 -27 32 -5 49 -23 43 -44 -4 -11 -3 -19 2
-19 4 0 18 -3 31 -6 18 -5 22 -2 22 19 0 13 -7 30 -15 37 -8 7 -15 9 -15 5 0
-3 -16 3 -35 15 -19 12 -35 18 -35 13 0 -4 -4 -2 -9 6 -6 10 -10 10 -16 1z"/>
<path d="M1500 926 c0 -9 5 -16 10 -16 6 0 10 4 10 9 0 6 -4 13 -10 16 -5 3
-10 -1 -10 -9z"/>
<path d="M1187 893 c-12 -11 -8 -23 8 -23 8 0 15 7 15 15 0 16 -12 20 -23 8z"/>
<path d="M1545 890 c-3 -5 -15 -10 -26 -10 -10 0 -19 -7 -19 -15 0 -8 9 -15
20 -15 11 0 23 -7 26 -15 8 -21 36 -19 62 5 27 25 27 29 5 46 -21 16 -59 18
-68 4z"/>
<path d="M792 859 c2 -6 8 -10 13 -10 5 0 11 4 13 10 2 6 -4 11 -13 11 -9 0
-15 -5 -13 -11z"/>
<path d="M757 768 c-5 -16 10 -48 24 -48 14 0 7 52 -7 57 -7 2 -14 -2 -17 -9z"/>
<path d="M183 728 c-11 -13 -23 -32 -27 -43 -7 -20 -8 -20 -21 -1 -8 10 -16
23 -17 28 -5 13 -118 -24 -118 -39 0 -8 9 -11 28 -7 21 4 36 -1 60 -21 17 -14
31 -31 29 -38 -4 -22 30 -18 36 4 6 23 6 23 27 4 25 -23 22 -50 -5 -50 -13 0
-20 -7 -20 -20 0 -10 -11 -25 -24 -31 l-23 -12 21 -7 c23 -7 55 11 45 26 -11
19 8 30 21 12 26 -35 29 5 15 200 -2 22 -2 22 -27 -5z"/>
<path d="M1292 668 c-19 -19 -14 -30 8 -18 11 6 20 15 20 20 0 14 -14 12 -28
-2z"/>
<path d="M1495 660 c-3 -5 1 -10 9 -10 9 0 16 5 16 10 0 6 -4 10 -9 10 -6 0
-13 -4 -16 -10z"/>
<path d="M1120 610 c0 -11 5 -20 10 -20 6 0 10 9 10 20 0 11 -4 20 -10 20 -5
0 -10 -9 -10 -20z"/>
<path d="M1442 613 c-6 -10 -6 -27 -1 -41 7 -18 14 -21 33 -16 33 8 44 -1 38
-31 -3 -16 -11 -25 -23 -25 -12 0 -19 -7 -19 -19 0 -11 -9 -21 -21 -24 -24 -6
-21 -30 3 -35 9 -2 19 6 23 17 3 12 17 21 33 23 19 2 27 9 27 23 0 15 8 21 30
23 53 5 57 9 40 36 -9 14 -15 29 -14 33 1 4 -11 12 -27 16 -42 12 -77 24 -96
32 -11 4 -20 0 -26 -12z m118 -63 c-9 -6 -19 -5 -25 1 -6 6 -5 13 5 19 9 6 19
5 25 -1 6 -6 5 -13 -5 -19z"/>
<path d="M0 570 l0 -49 33 6 c51 10 79 22 72 33 -3 5 -13 10 -22 10 -10 0 -13
6 -9 17 8 20 -10 33 -46 33 -27 0 -28 -2 -28 -50z"/>
<path d="M760 600 c0 -5 -9 -10 -19 -10 -29 0 -35 -17 -9 -23 14 -4 29 0 40
10 22 20 23 33 3 33 -8 0 -15 -4 -15 -10z"/>
<path d="M870 566 c0 -18 7 -39 15 -46 8 -7 15 -19 15 -27 0 -8 5 -11 10 -8 6
3 10 1 10 -4 0 -6 -4 -11 -10 -11 -5 0 -10 -9 -10 -19 0 -30 -16 -34 -61 -13
-25 12 -37 22 -30 26 6 4 8 12 5 18 -10 16 -86 0 -111 -24 -14 -13 -31 -19
-46 -16 -20 4 -26 -1 -37 -31 -7 -20 -13 -38 -12 -41 0 -3 -8 -8 -19 -12 -10
-4 -24 -19 -29 -33 -6 -15 -17 -25 -29 -25 -26 0 -41 -21 -40 -56 1 -33 -28
-143 -43 -161 -5 -6 -11 -27 -13 -47 l-3 -35 113 0 c91 -1 114 2 119 14 7 19
26 19 26 0 0 -13 21 -15 133 -15 l133 0 11 31 c7 17 16 28 20 26 5 -3 14 -2
21 2 9 6 9 15 -4 39 -15 32 -23 36 -56 33 -18 -2 -48 54 -48 89 0 21 -27 30
-97 30 -54 0 -80 16 -41 25 13 3 51 4 85 2 62 -2 62 -2 82 33 14 26 17 40 10
53 -7 12 -6 17 2 17 7 0 9 10 6 29 -7 31 7 51 35 51 27 0 22 25 -12 60 -16 16
-27 36 -24 44 3 9 -6 18 -27 25 -46 16 -49 15 -49 -23z m-200 -456 c0 -5 -2
-10 -4 -10 -3 0 -8 5 -11 10 -3 6 -1 10 4 10 6 0 11 -4 11 -10z m30 -39 c0
-11 -4 -23 -10 -26 -6 -4 -10 5 -10 19 0 14 5 26 10 26 6 0 10 -9 10 -19z"/>
<path d="M1215 580 c-3 -5 -1 -10 4 -10 6 0 11 5 11 10 0 6 -2 10 -4 10 -3 0
-8 -4 -11 -10z"/>
<path d="M1355 529 c-4 -5 5 -21 19 -34 14 -13 26 -23 27 -22 10 27 6 48 -10
57 -24 13 -28 13 -36 -1z"/>
<path d="M1277 303 c-19 -10 -26 -18 -19 -25 11 -11 72 16 72 32 0 14 -19 11
-53 -7z"/>
<path d="M18 262 c-16 -3 -18 -18 -18 -133 l0 -129 160 0 160 0 6 26 c4 14 2
30 -5 37 -17 17 -13 37 9 37 17 0 19 5 13 33 -8 42 -8 42 -42 28 -23 -10 -33
-10 -49 0 -18 11 -24 10 -41 -5 -17 -15 -27 -17 -53 -10 -18 6 -34 17 -36 27
-2 10 0 17 5 16 4 -1 20 1 36 5 28 9 37 26 13 26 -8 0 -21 3 -29 6 -8 3 -21
-2 -30 -10 -25 -26 -51 -19 -67 17 -10 23 -20 32 -32 29z m196 -217 c-8 -19
-24 -19 -24 0 0 8 7 15 15 15 9 0 12 -6 9 -15z"/>
<path d="M2430 45 c-10 -26 -29 -32 -47 -14 -5 5 -22 7 -36 4 -21 -6 -24 -10
-14 -20 12 -12 187 -22 187 -10 0 3 -12 10 -26 15 -14 6 -28 19 -31 30 -7 27
-22 25 -33 -5z"/>
<path d="M2260 25 c0 -17 9 -19 28 -6 11 7 10 10 -3 15 -23 9 -25 8 -25 -9z"/>
<path d="M3095 20 c-18 -19 -17 -20 3 -20 15 0 22 6 22 20 0 25 -2 25 -25 0z"/>
</g>
</svg>
