<svg xmlns="http://www.w3.org/2000/svg" width="450" viewBox="0 0 874.23 945.14"><defs><style>.cls-1{isolation:isolate;}.cls-2{fill:#c49a6c;}.cls-3{fill:#f4f4f5;}.cls-4{fill:#bebdda;}.cls-5{fill:#754c29;opacity:0.2;}.cls-12,.cls-21,.cls-5{mix-blend-mode:darken;}.cls-6{fill:#cfcfce;}.cls-7{opacity:0.75;}.cls-8{fill:#7c85c1;}.cls-9{fill:#5363aa;}.cls-10{fill:#5364aa;}.cls-11{fill:#5156a5;}.cls-12{fill:#979c9c;opacity:0.3;}.cls-13{fill:#ddc69c;}.cls-14{fill:#c5af8d;}.cls-15{fill:#e5d4ae;}.cls-16{fill:#fdefca;}.cls-17{fill:#cec69b;}.cls-18{fill:#e6e7e8;}.cls-19{fill:#d1d3d4;}.cls-20{fill:#f7941d;}.cls-21{fill:#c4c5c5;}.cls-22{opacity:0.88;}.cls-23{fill:#bd2026;}</style></defs><g class="cls-1"><g id="Layer_1" data-name="Layer 1"><path class="cls-2" d="M1022.38,656.83,960.07,556.6l-26.78-43.08L693.08,127.12h0L629.36,24.61a18.46,18.46,0,0,0-25.47-5.73L159.73,295a18.46,18.46,0,0,0-6.13,25.38l393,632.22a18.47,18.47,0,0,0,25.47,5.74l444.16-276.12A18.46,18.46,0,0,0,1022.38,656.83Z" transform="translate(-150.87 -16.03)"/><rect class="cls-3" x="196.55" y="248.99" width="140.02" height="166.85" transform="translate(-286.19 174.8) rotate(-31.87)"/><rect class="cls-4" x="177.01" y="277.33" width="112.74" height="3.41" transform="translate(-263.01 149.24) rotate(-31.87)"/><rect class="cls-4" x="190.11" y="298.39" width="112.74" height="3.41" transform="translate(-272.16 159.33) rotate(-31.87)"/><rect class="cls-4" x="203.2" y="319.46" width="112.74" height="3.41" transform="translate(-281.3 169.41) rotate(-31.87)"/><rect class="cls-4" x="216.3" y="340.52" width="112.74" height="3.41" transform="translate(-290.45 179.5) rotate(-31.87)"/><rect class="cls-4" x="229.39" y="361.58" width="112.74" height="3.41" transform="translate(-299.6 189.59) rotate(-31.87)"/><rect class="cls-4" x="242.48" y="382.64" width="112.74" height="3.41" transform="translate(-308.74 199.68) rotate(-31.87)"/><polygon class="cls-5" points="12.19 282.49 97.02 435.48 219.2 350.27 100.28 424.19 12.19 282.49"/><path class="cls-6" d="M203.77,264.47l-3.5-5.62a21.15,21.15,0,0,1,35.93-22.33l31.65,50.92a14,14,0,0,1-23.75,14.77L223.48,269l6.26-3.89,20.61,33.16a6.62,6.62,0,0,0,11.24-7l-31.65-50.92A13.78,13.78,0,0,0,206.53,255l3.5,5.62Z" transform="translate(-150.87 -16.03)"/><g class="cls-7"><path class="cls-8" d="M605.65,870.17,236.2,917.51a10.61,10.61,0,0,1-11.87-9.17L196,687a10.62,10.62,0,0,1,9.18-11.87l369.44-47.33A10.6,10.6,0,0,1,586.46,637L614.82,858.3A10.6,10.6,0,0,1,605.65,870.17Z" transform="translate(-150.87 -16.03)"/><path class="cls-9" d="M417.87,761.66a22.75,22.75,0,0,0-27.31,3.5L227.84,916.76a6.78,6.78,0,0,0,4.78,1.21l376.61-48.26a6.74,6.74,0,0,0,4.32-2.38Z" transform="translate(-150.87 -16.03)"/><path class="cls-10" d="M392.93,783.65a22.73,22.73,0,0,0,27.31-3.5L583,628.56a6.71,6.71,0,0,0-4.77-1.21L201.56,675.6a6.78,6.78,0,0,0-4.31,2.38Z" transform="translate(-150.87 -16.03)"/><path class="cls-11" d="M420.24,780.15a22.73,22.73,0,0,1-27.31,3.5L197.36,678l-.09.11,197.26,118a21.18,21.18,0,0,0,27.31-3.5L583,628.73l-.11-.08Z" transform="translate(-150.87 -16.03)"/></g><path class="cls-12" d="M944.27,541.17a15.87,15.87,0,0,0-13.72-9.09l-4.73-.18L871.47,416.8l1.83.28,18.2-118.21h0l-19.3-26.33L698.4,528a6.79,6.79,0,0,0-1.09,4.8l.13,0s0,.09,0,.14l1.25-.4a10.59,10.59,0,0,0,4.52,7.25L887.71,665.25a10.56,10.56,0,0,0,8.59,1.49l0,1.46a6.77,6.77,0,0,0,4.08-2.77l60.52-89Zm-245.59-8.89-1,.36,1-.36Z" transform="translate(-150.87 -16.03)"/><path class="cls-13" d="M757.28,262.58a15.87,15.87,0,0,0-1.7,16.37L865.26,511.26A15.88,15.88,0,0,0,879,520.34l37.74,1.5L780.1,232.49Z" transform="translate(-150.87 -16.03)"/><path class="cls-14" d="M755.58,279,865.26,511.26A15.88,15.88,0,0,0,879,520.34l37.74,1.5-2.57-5.44-24.74-1a15.88,15.88,0,0,1-13.72-9.08L766,274a15.87,15.87,0,0,1,1.71-16.37l15-19.73-2.57-5.44-22.82,30.09A15.87,15.87,0,0,0,755.58,279Z" transform="translate(-150.87 -16.03)"/><polygon class="cls-15" points="703.02 268.39 707.41 239.89 731.53 272.78 703.02 268.39"/><polygon class="cls-16" points="566.61 368.41 713.33 390.99 731.53 272.78 703.02 268.39 707.41 239.89 589.2 221.69 566.61 368.41"/><rect class="cls-17" x="868.18" y="274.21" width="1.7" height="26.81" transform="translate(301.68 1086.73) rotate(-81.25)"/><path class="cls-5" d="M153,400.9,542.11,928l34.59-24.39,5.46,8.48,19.15-12.31.41.48,100.84-64.82a16.17,16.17,0,0,0,4.85-22.35l-56.32-87.61-24.2-37.65L409.77,350.14h0l-55.95-87Z" transform="translate(-150.87 -16.03)"/><rect class="cls-18" x="302.1" y="191.19" width="458.3" height="641.61" transform="translate(-353.59 420.8) rotate(-38.1)"/><rect class="cls-19" x="279.92" y="308.96" width="191.84" height="9.59" transform="translate(-264.39 282.69) rotate(-38.1)"/><rect class="cls-19" x="229.85" y="351.61" width="358.82" height="9.59" transform="translate(-283.58 312.4) rotate(-38.1)"/><rect class="cls-19" x="264.92" y="396.34" width="358.82" height="9.59" transform="translate(-303.71 343.56) rotate(-38.1)"/><rect class="cls-19" x="300" y="441.07" width="358.82" height="9.59" transform="translate(-323.84 374.73) rotate(-38.1)"/><rect class="cls-19" x="335.07" y="485.81" width="358.82" height="9.59" transform="translate(-343.97 405.9) rotate(-38.1)"/><rect class="cls-19" x="370.14" y="530.54" width="358.82" height="9.59" transform="translate(-364.1 437.06) rotate(-38.1)"/><rect class="cls-19" x="405.21" y="575.28" width="358.82" height="9.59" transform="translate(-384.23 468.23) rotate(-38.1)"/><rect class="cls-19" x="591.88" y="673.81" width="139.98" height="9.59" transform="translate(-428.57 536.88) rotate(-38.1)"/><path class="cls-20" d="M921.45,522,879,520.34a15.89,15.89,0,0,1-13.72-9.08L755.58,279a15.87,15.87,0,0,1,1.7-16.37L783,228.72a15.85,15.85,0,0,0,1.71-16.37L722.26,80.17a15.87,15.87,0,0,0-21.13-7.57L297.62,263.11a15.88,15.88,0,0,0-7.57,21.13L565.37,867.36a15.87,15.87,0,0,0,21.13,7.58L990,684.42a15.88,15.88,0,0,0,7.57-21.13L935.17,531.11A15.85,15.85,0,0,0,921.45,522Z" transform="translate(-150.87 -16.03)"/><rect class="cls-19" x="354.22" y="189.99" width="458.3" height="641.61" transform="translate(-342.79 481.88) rotate(-40.25)"/><polygon class="cls-21" points="154.25 310 81.11 371.92 247.88 631.34 456.89 878.2 536.67 826.91 783.88 617.61 617.11 358.18 427.55 134.3 154.25 310"/><rect class="cls-18" x="369.01" y="180.48" width="458.3" height="641.61" transform="translate(-326.95 387.04) rotate(-32.74)"/><rect class="cls-19" x="366.03" y="284.61" width="191.84" height="9.59" transform="translate(-234 279.73) rotate(-32.74)"/><rect class="cls-19" x="311.84" y="330.18" width="358.82" height="9.59" transform="translate(-253.99 302.82) rotate(-32.74)"/><rect class="cls-19" x="342.57" y="378" width="358.82" height="9.59" transform="translate(-274.97 327.03) rotate(-32.74)"/><rect class="cls-19" x="373.31" y="425.81" width="358.82" height="9.59" transform="translate(-295.94 351.25) rotate(-32.74)"/><rect class="cls-19" x="404.05" y="473.63" width="358.82" height="9.59" transform="translate(-316.92 375.46) rotate(-32.74)"/><rect class="cls-19" x="434.79" y="521.44" width="358.82" height="9.59" transform="translate(-337.89 399.68) rotate(-32.74)"/><rect class="cls-19" x="465.53" y="569.26" width="358.82" height="9.59" transform="translate(-358.87 423.9) rotate(-32.74)"/><rect class="cls-19" x="642.65" y="674.58" width="139.98" height="9.59" transform="translate(-405.06 477.24) rotate(-32.74)"/><g class="cls-22"><path class="cls-23" d="M485.19,712.48l132.87,23.28,80-482.88L565.21,229.6ZM679.45,269.81,605.93,713.44l-102.1-17.89,73.52-443.63Z" transform="translate(-150.87 -16.03)"/><path class="cls-23" d="M586.81,593.14l2.16-12h9.12l1.77-9.83-50.41.59-2.57,14.27,46.84,19.26,1.61-9Zm-30.12-11.93,25.44,0-1.69,9.39Z" transform="translate(-150.87 -16.03)"/><path class="cls-23" d="M584,548.5l.83-4.61q1.32-7.35-1.09-11.53t-8.31-5.31l-6.33-1.22q-5.9-1.12-9.6,1.87t-5,10.36l-2.59,14.36,48.63,9.34,1.76-9.75ZM560.59,544l.83-4.6A5.6,5.6,0,0,1,563,536c.79-.7,2.07-.89,3.83-.55l7.3,1.4c1.76.34,2.89,1,3.39,1.94a5.74,5.74,0,0,1,.33,3.73l-.83,4.61Z" transform="translate(-150.87 -16.03)"/><path class="cls-23" d="M591.61,506.22l.83-4.61q1.32-7.35-1.09-11.53c-1.6-2.79-4.38-4.56-8.31-5.31l-6.32-1.22q-5.91-1.12-9.61,1.87t-5,10.36l-2.58,14.36,48.62,9.34,1.76-9.75Zm-23.41-4.5.83-4.6a5.6,5.6,0,0,1,1.61-3.36c.8-.7,2.07-.89,3.83-.55l7.3,1.4c1.76.34,2.89,1,3.39,1.94a5.74,5.74,0,0,1,.33,3.73l-.83,4.61Z" transform="translate(-150.87 -16.03)"/><path class="cls-23" d="M597.69,463.65l.61-3.37c.4-2.25,1.16-3.78,2.26-4.61s2.8-1,5.07-.59l7.64,1.47c1,.19,1.79.33,2.44.42a9.58,9.58,0,0,0,1.63.13,4.91,4.91,0,0,0,1.1-.11l1-.18,1.79-9.92a8.77,8.77,0,0,1-2.9.36,26,26,0,0,1-3.19-.43l-7.51-1.45a14.42,14.42,0,0,0-6.74.13,8.12,8.12,0,0,0-4.77,4.36q-1.22-6.84-8.72-8.28l-3.82-.73q-5.62-1.08-9,1.8t-4.76,10.5l-2.65,14.71,48.62,9.34,1.76-9.75Zm-21.88-4.2.84-4.7a5.19,5.19,0,0,1,1.86-3.54,5.28,5.28,0,0,1,4-.47l4.79.92c1.95.38,3.2,1.15,3.75,2.33a7.39,7.39,0,0,1,.34,4.51l-.69,3.81Z" transform="translate(-150.87 -16.03)"/><path class="cls-23" d="M626.82,418.81q1.29-7.19-1.18-11.6t-8.38-5.55L592,396.8c-3.93-.76-7.18-.06-9.75,2.07s-4.28,5.6-5.14,10.39-.47,8.65,1.18,11.59,4.45,4.8,8.38,5.56l25.29,4.85q5.91,1.14,9.75-2.07C624.25,427.06,626,423.59,626.82,418.81Zm-38.91-2.25a4.6,4.6,0,0,1-3.47-2.09,5.92,5.92,0,0,1-.41-3.88,5.86,5.86,0,0,1,1.74-3.47q1.32-1.17,4-.66l26.26,5c1.76.34,2.92,1,3.47,2.09a5.93,5.93,0,0,1,.41,3.88,5.77,5.77,0,0,1-1.73,3.47c-.89.78-2.21,1-4,.66Z" transform="translate(-150.87 -16.03)"/><polygon class="cls-23" points="484.65 351.26 437.74 332.35 436.13 341.3 474.46 356.36 433.45 356.19 431.68 366.03 482.03 365.79 484.65 351.26"/><polygon class="cls-23" points="486.62 300.38 483.59 317.22 469.35 314.48 471.76 301.1 464.81 299.76 462.4 313.15 448.86 310.55 451.89 293.7 444.94 292.37 440.15 318.96 488.78 328.3 493.57 301.71 486.62 300.38"/><path class="cls-23" d="M648.81,275.9q-2.41-4.18-8.31-5.32l-24.6-4.72q-5.89-1.12-9.6,1.87t-5,10.36l-2.78,15.42,48.63,9.34,2.78-15.42Q651.22,280.08,648.81,275.9Zm-6.88,15.87L607.2,285.1l1-5.5a5.82,5.82,0,0,1,1.7-3.43c.85-.75,2.16-1,3.92-.62l25.29,4.85c1.76.34,2.91,1,3.44,2a5.88,5.88,0,0,1,.39,3.83Z" transform="translate(-150.87 -16.03)"/><path class="cls-23" d="M591.32,627.29c3.31-12.09-7.19-18.54-16.34-16.6-9,1.48-14.71,13.63-24,12-8.34-2-3.06-12.53,4-8.72l1.84-8.68c-22.51-7.25-23.56,32.51-.77,26.76,7.36-1.5,12.34-9,19.14-11.73,12.35-4,11.6,13.94-.76,8.4l-1.84,8.69C580.9,640.16,589.33,638.37,591.32,627.29Z" transform="translate(-150.87 -16.03)"/><polygon class="cls-23" points="385.36 625.2 383.96 633.05 433.82 642.47 435.23 634.61 385.36 625.2"/><path class="cls-23" d="M579.58,671.33q-2.42-4.17-8.32-5.31l-24.59-4.72q-5.91-1.14-9.61,1.87t-5,10.36L529.26,689l48.62,9.34,2.78-15.42Q582,675.51,579.58,671.33Zm-6.89,15.88L538,680.54l1-5.5a5.73,5.73,0,0,1,1.69-3.43c.86-.76,2.17-1,3.93-.63l25.28,4.86c1.76.34,2.91,1,3.44,2a5.81,5.81,0,0,1,.39,3.83Z" transform="translate(-150.87 -16.03)"/></g></g></g></svg>