<svg xmlns="http://www.w3.org/2000/svg" xmlns:xlink="http://www.w3.org/1999/xlink" width="600" viewBox="0 0 72 72"><defs><style>.cls-1{opacity:0.08;}.cls-2{fill:url(#linear-gradient);}.cls-3{opacity:0.2;fill:url(#linear-gradient-2);}.cls-4{fill:#f9fcf9;}.cls-5{fill:#60c5b9;}</style><linearGradient id="linear-gradient" x1="36.773" y1="34.663" x2="-22.227" y2="136.663" gradientUnits="userSpaceOnUse"><stop offset="0" stop-color="#39b5b2"/><stop offset="1" stop-color="#008f83"/></linearGradient><linearGradient id="linear-gradient-2" x1="28.25" y1="40.862" x2="56.665" y2="40.862" gradientUnits="userSpaceOnUse"><stop offset="0"/><stop offset="1" stop-opacity="0"/></linearGradient></defs><title>pi</title><g id="Layer_7" data-name="Layer 7"><g class="cls-1"><path d="M49.372,50.694c.1-.143.188-.29.281-.435a21.035,21.035,0,0,0,1.162-2.048c.023-.046.048-.09.07-.135.185-.382.354-.771.516-1.164.042-.1.082-.2.122-.3a20.846,20.846,0,0,0,1.11-3.9c.013-.071.027-.141.039-.212.079-.458.145-.918.193-1.385h0A20.994,20.994,0,1,0,14.8,50.942c0,.074.005.141.011.217.628,8.978-4.291,10.324-4.291,10.324,7.981-.558,11.762-3.829,11.762-3.829l-.038-.151a20.912,20.912,0,0,0,17.273,1.036h0c.183-.071.359-.154.54-.229.376-.156.747-.32,1.111-.5.226-.11.448-.223.668-.34.339-.181.671-.372,1-.57.189-.114.382-.221.567-.341.442-.287.87-.593,1.287-.911.217-.165.425-.338.635-.511.241-.2.476-.4.708-.61.214-.193.429-.385.635-.586.251-.247.491-.5.729-.763q.484-.523.93-1.078c.144-.179.289-.357.427-.541Q49.073,51.136,49.372,50.694Z"/></g><path class="cls-2" d="M36,15A20.968,20.968,0,0,0,18,46.783c0,.074,0,.141,0,.217,0,9-5,10-5,10,8,0,12-3,12-3l-.028-.153A20.991,20.991,0,1,0,36,15Z"/><path class="cls-3" d="M56.665,39.634,42.988,25.64,28.25,27.75l.944,15.08L42.131,56.085A21.012,21.012,0,0,0,56.665,39.634Z"/><path class="cls-4" d="M25.658,37c-.818,0-1.212-.366-1.212-1.19,0-.7.394-1.128,1.212-1.128h.031V34.1c0-.335,0-.7.03-1.067h-.061c-.818,0-1.212-.366-1.212-1.19,0-.7.394-1.128,1.212-1.128h.394A10.542,10.542,0,0,1,28.658,25.9,10.018,10.018,0,0,1,36.3,22.666a9.331,9.331,0,0,1,4.7,1.128c1.363.732,2.03,1.617,2.06,2.623a2.333,2.333,0,0,1-2,2.532,3.7,3.7,0,0,1-2-.671,4.927,4.927,0,0,0-2.727-.732,5.077,5.077,0,0,0-4.092,1.8,6.455,6.455,0,0,0-.848,1.373h4.636a1.081,1.081,0,0,1,1.213,1.128,1.07,1.07,0,0,1-1.213,1.19H30.81c-.03.366-.061.732-.061,1.067v.58h3.516a1.159,1.159,0,1,1,0,2.318H31.234a6.2,6.2,0,0,0,1,1.738,5.075,5.075,0,0,0,4.092,1.8,5.178,5.178,0,0,0,2.727-.7,3.516,3.516,0,0,1,2-.7,2.34,2.34,0,0,1,2,2.5c-.03,1.037-.7,1.921-2.06,2.684a9.643,9.643,0,0,1-4.7,1.1,10.021,10.021,0,0,1-7.637-3.233A11.1,11.1,0,0,1,25.961,37Z"/><path class="cls-5" d="M36,17A20.984,20.984,0,0,1,56.95,37c.015-.334.05-.662.05-1a21,21,0,0,0-42,0c0,.4.019.789.041,1.181A20.985,20.985,0,0,1,36,17Z"/></g></svg>